<svg width="362" height="127" viewBox="0 0 362 127" fill="none" xmlns="http://www.w3.org/2000/svg">
<path d="M60.0647 85.0664L55.0115 96.6474C53.0687 101.099 46.9129 101.099 44.9701 96.6474L39.9169 85.0664C35.4189 74.7601 27.3248 66.5551 17.2275 62.0718L3.31698 55.8943C-1.10566 53.9302 -1.10566 47.4933 3.31698 45.5292L16.7916 39.5433C27.1483 34.9438 35.3887 26.4356 39.8083 15.7778L44.9278 3.43494C46.8269 -1.14498 53.1517 -1.14498 55.0523 3.43494L60.1718 15.7778C64.5914 26.4356 72.8318 34.9438 83.1886 39.5433L96.6646 45.5292C101.087 47.4933 101.087 53.9302 96.6646 55.8943L82.7541 62.0733C72.6554 66.5551 64.5613 74.7601 60.0647 85.0664Z" fill="url(#paint0_radial_10_3)"/>
<path d="M107.027 121.585L105.606 124.845C104.565 127.231 101.263 127.231 100.224 124.845L98.8032 121.585C96.2706 115.774 91.7062 111.147 86.0134 108.616L81.6345 106.67C79.2663 105.617 79.2663 102.173 81.6345 101.122L85.7691 99.2841C91.6096 96.688 96.254 91.8893 98.7444 85.8808L100.203 82.3584C101.22 79.904 104.612 79.904 105.629 82.3584L107.089 85.8808C109.579 91.8893 114.224 96.688 120.064 99.2841L124.199 101.122C126.567 102.175 126.567 105.619 124.199 106.67L119.82 108.616C114.123 111.146 109.56 115.774 107.027 121.585Z" fill="url(#paint1_radial_10_3)"/>
<path d="M143.296 103.753V20.7681H173.312C179.879 20.7681 185.519 22.9313 190.231 27.2578C194.945 31.5073 197.301 36.8777 197.301 43.3675C197.301 51.5573 193.554 57.3139 186.059 60.6372V61.1003C190.308 62.4912 193.708 64.9245 196.258 68.4016C198.807 71.8019 200.081 75.703 200.081 80.1079C200.081 86.9069 197.609 92.5473 192.665 97.0292C187.874 101.511 181.964 103.751 174.933 103.751H143.296V103.753ZM153.959 30.9673V56.3499H173.313C177.099 56.3499 180.267 55.0752 182.816 52.5258C185.365 49.8994 186.64 46.9246 186.64 43.6013C186.64 40.3564 185.403 37.4193 182.931 34.7929C180.458 32.2435 177.407 30.9688 173.775 30.9688H153.959V30.9673ZM153.959 66.3168V93.5535H175.399C179.262 93.5535 182.546 92.2018 185.251 89.497C187.877 86.7922 189.191 83.5866 189.191 79.8771C189.191 76.246 187.839 73.0781 185.135 70.3733C182.43 67.6685 179.032 66.3168 174.936 66.3168H153.959ZM218.016 86.3683C218.016 89.1501 219.175 91.4687 221.493 93.3227C223.888 95.1767 226.67 96.1044 229.838 96.1044C234.319 96.1044 238.298 94.4435 241.774 91.1202C245.327 87.7969 247.104 83.8958 247.104 79.414C243.781 76.7861 239.146 75.4737 233.197 75.4737C228.871 75.4737 225.239 76.5161 222.303 78.6024C219.446 80.6887 218.016 83.2773 218.016 86.3683ZM231.808 45.1068C239.688 45.1068 245.908 47.2323 250.467 51.4819C255.025 55.6545 257.304 61.4111 257.304 68.7516V103.754H247.106V95.8736H246.641C242.237 102.363 236.366 105.61 229.026 105.61C222.768 105.61 217.514 103.756 213.265 100.046C209.093 96.3367 207.006 91.701 207.006 86.1375C207.006 80.2648 209.209 75.5898 213.612 72.1141C218.093 68.637 224.042 66.8991 231.459 66.8991C237.794 66.8991 243.011 68.0577 247.104 70.3763V67.943C247.104 64.2336 245.637 61.1048 242.7 58.5554C239.764 55.9291 236.325 54.6151 232.385 54.6151C226.436 54.6151 221.724 57.1268 218.247 62.1488L208.86 56.2383C214.039 48.8163 221.686 45.1068 231.808 45.1068ZM279.991 103.753H269.329V46.9608H279.528V56.2323H279.991C281.072 53.2182 283.274 50.6688 286.596 48.5825C289.996 46.4192 293.317 45.3376 296.562 45.3376C299.653 45.3376 302.28 45.8007 304.442 46.7285L301.197 57.0439C299.883 56.5023 297.797 56.2323 294.939 56.2323C290.922 56.2323 287.406 57.8555 284.392 61.1003C281.457 64.3452 279.988 68.1316 279.988 72.4581V103.753H279.991ZM333.418 95.8721C338.672 95.8721 342.961 93.9789 346.282 90.1925C349.759 86.406 351.497 81.461 351.497 75.3575C351.497 69.4078 349.759 64.5006 346.282 60.6387C342.882 56.7753 338.595 54.8429 333.418 54.8429C328.318 54.8429 324.032 56.7753 320.555 60.6387C317.078 64.5021 315.34 69.4093 315.34 75.3575C315.34 81.3841 317.078 86.2914 320.555 90.0763C324.03 93.9397 328.318 95.8721 333.418 95.8721ZM331.679 105.607C324.262 105.607 317.888 102.671 312.557 96.7983C307.303 90.8487 304.677 83.7012 304.677 75.356C304.677 67.0108 307.305 59.8633 312.557 53.9137C317.888 48.0409 324.262 45.1053 331.679 45.1053C335.851 45.1053 339.637 45.9938 343.036 47.7709C346.513 49.5479 349.178 51.9043 351.032 54.8414H351.495L351.032 46.9608V20.7681H361.693V103.753H351.495V95.8721H351.032C349.178 98.8077 346.513 101.166 343.036 102.943C339.637 104.718 335.851 105.607 331.679 105.607Z" fill="#5F6368"/>
<defs>
<radialGradient id="paint0_radial_10_3" cx="0" cy="0" r="1" gradientTransform="matrix(15.084 76.6337 76.627 -15.0854 78.2797 55.5234)" gradientUnits="userSpaceOnUse">
<stop stop-color="#1BA1E3"/>
<stop offset="0.3002" stop-color="#5489D6"/>
<stop offset="0.5455" stop-color="#9B72CB"/>
<stop offset="0.8254" stop-color="#D96570"/>
<stop offset="1" stop-color="#F49C46"/>
</radialGradient>
<radialGradient id="paint1_radial_10_3" cx="0" cy="0" r="1" gradientTransform="matrix(15.084 76.6337 76.627 -15.0854 78.2794 55.5232)" gradientUnits="userSpaceOnUse">
<stop stop-color="#1BA1E3"/>
<stop offset="0.3002" stop-color="#5489D6"/>
<stop offset="0.5455" stop-color="#9B72CB"/>
<stop offset="0.8254" stop-color="#D96570"/>
<stop offset="1" stop-color="#F49C46"/>
</radialGradient>
</defs>
</svg>
