<svg width="50" height="66" viewBox="0 0 50 66" fill="none" xmlns="http://www.w3.org/2000/svg">
<path d="M10.3607 25.1683H40.2727V22.2426H10.3607V25.1683ZM10.3607 31.0114H23.2733V28.0892H10.3607V31.0114ZM10.3607 19.1005H40.2727V16.1803H10.3607V19.1005ZM40.2734 10.3392H10.3607V13.2621H40.2727L40.2734 10.3392ZM19.9132 66L24.7292 63.4642L29.546 66V53.4807H23.4454L19.9132 66ZM0 0V60.942H18.2359L18.9831 58.2922H3.44922V3.17966H46.7516V58.3933L43.3188 58.3755L44.0427 60.9427H49.9548L50 43.2699V0H0ZM31.1403 37.8282C28.4568 37.8282 26.2811 39.9981 26.2811 42.6704C26.2811 45.34 28.4568 47.5113 31.1403 47.5113C33.8239 47.5113 36.0009 45.34 36.0009 42.6704C36.0009 39.9981 33.8239 37.8282 31.1403 37.8282ZM33.2186 53.4807V66L38.0347 63.4642L42.8493 66L39.3192 53.4807H33.2186ZM36.4417 51.8175L37.0743 48.5812L40.3234 47.9516L39.2465 44.8341L41.745 42.6711L39.2465 40.5067L40.3234 37.3906L37.0743 36.7597L36.4417 33.5247L33.3132 34.5967L31.141 32.1086L28.9695 34.5967L25.8404 33.5247L25.2077 36.7597L21.9586 37.3906L23.0355 40.5067L20.5377 42.6711L23.0355 44.8341L21.9586 47.9516L25.2077 48.5812L25.8404 51.8175L28.9695 50.7442L31.141 53.2329L33.3132 50.7442L36.4417 51.8175ZM24.5263 42.6704C24.5263 39.0313 27.4889 36.083 31.1403 36.083C34.7945 36.083 37.7543 39.0313 37.7543 42.6704C37.7543 46.3069 34.7945 49.2564 31.1403 49.2564C27.4889 49.2571 24.5263 46.3069 24.5263 42.6704Z" fill="url(#paint0_linear_74_1231)"/>
<defs>
<linearGradient id="paint0_linear_74_1231" x1="48.25" y1="40.59" x2="0.0428647" y2="29.5946" gradientUnits="userSpaceOnUse">
<stop stop-color="#2271FF" stop-opacity="0.9"/>
<stop offset="0.439181" stop-color="#883DED" stop-opacity="0.945933"/>
<stop offset="1" stop-color="#FC34DD"/>
</linearGradient>
</defs>
</svg>
