<svg width="50" height="50" viewBox="0 0 50 50" fill="none" xmlns="http://www.w3.org/2000/svg">
<path fill-rule="evenodd" clip-rule="evenodd" d="M23.8929 49.9626C23.2884 49.9626 22.6839 49.8911 22.0837 49.8174C21.1476 49.7177 20.3893 49.0135 20.2203 48.0881C19.8259 46.0186 18.7902 44.4215 17.1911 43.7606C15.5942 43.0997 13.7351 43.4941 11.9931 44.6707H11.9952C11.2282 45.2038 10.2011 45.1691 9.47094 44.5862C7.94987 43.3835 6.57612 42.0053 5.37793 40.4819C4.78641 39.7517 4.74741 38.718 5.28259 37.9466C6.45914 36.2043 6.85131 34.3471 6.19262 32.7544C5.53176 31.1616 3.94567 30.1301 1.88726 29.7249C0.964201 29.5559 0.26002 28.7975 0.162505 27.8613C-0.0541684 25.9587 -0.0541684 24.0387 0.162505 22.1363C0.260009 21.2001 0.964201 20.4417 1.88726 20.2726C3.94567 19.8674 5.53608 18.8359 6.19262 17.2432C6.84699 15.6504 6.45913 13.7933 5.28259 12.051C4.7474 11.2796 4.7864 10.2459 5.37793 9.51563C6.57617 7.99222 7.94987 6.614 9.47094 5.41135C10.2011 4.81543 11.239 4.7786 12.0104 5.316C13.7524 6.49268 15.6094 6.89138 17.2085 6.22612C18.8054 5.56086 19.8432 3.96811 20.2376 1.89861C20.4066 0.973281 21.165 0.269022 22.101 0.16717C22.7055 0.0956565 23.3382 0.034983 23.8929 0.034983C24.1768 0.017647 24.4563 0.123832 24.6578 0.323194C24.8723 0.511721 24.9958 0.782596 25.0023 1.06645V9.97689C19.6352 9.97689 14.6778 12.8395 11.9931 17.4877C9.31069 22.1359 9.31069 27.861 11.9931 32.5093C14.6777 37.1575 19.6351 40.0201 25.0023 40.0201V48.9305C25.0045 49.2166 24.8896 49.4896 24.6816 49.6847C24.4715 49.8862 24.1833 49.9886 23.8929 49.9626ZM28.4128 11.4356C31.3791 12.1854 34.0163 13.8886 35.9183 16.2832C34.6638 16.8552 33.3658 17.3255 32.0355 17.6873C31.3746 15.4683 30.2262 12.9784 28.43 11.4353L28.4128 11.4356ZM36.5684 17.1501C35.1947 17.7871 33.7689 18.3051 32.3085 18.6973C32.7592 20.5913 32.9997 22.5308 33.0279 24.4767H38.9692C38.8782 21.8568 38.0439 19.3149 36.5684 17.1501ZM38.9692 25.5213C38.8782 28.1412 38.0439 30.6831 36.5684 32.8479C35.1947 32.2108 33.7689 31.6929 32.3085 31.3006C32.7592 29.4067 32.9997 27.4672 33.0279 25.5212L38.9692 25.5213ZM35.9401 33.7039C34.6877 33.1318 33.3876 32.6616 32.0572 32.2997C31.3964 34.5187 30.248 37.0086 28.4517 38.5518C31.418 37.7998 34.053 36.0965 35.9573 33.7042L35.9401 33.7039ZM25.5246 11.1304V18.6196C27.375 18.5871 29.219 18.3639 31.026 17.9543C29.9167 14.1383 27.8691 11.4965 25.5224 11.152L25.5246 11.1304ZM31.9857 24.4445H25.5246V19.6619C27.4682 19.6273 29.4031 19.3889 31.299 18.9533C31.7301 20.7714 31.9598 22.6307 31.9858 24.5009L31.9857 24.4445ZM31.9857 25.4868C31.9575 27.357 31.7256 29.2163 31.2988 31.0344C29.4028 30.5988 27.468 30.3605 25.5244 30.3258V25.5215L31.9857 25.4868ZM25.5246 38.868V31.3789C27.375 31.4114 29.219 31.6346 31.026 32.0441C29.9167 35.8602 27.8691 38.502 25.5224 38.8465L25.5246 38.868ZM24.4824 38.868L24.4802 31.3789C22.6298 31.4114 20.7859 31.6346 18.9788 32.0441C20.0882 35.8602 22.1358 38.502 24.4824 38.8465L24.4824 38.868ZM18.0213 25.554H18.0192C18.0452 27.4219 18.2749 29.2834 18.7061 31.1015C20.602 30.6638 22.5369 30.4254 24.4804 30.3907V25.5215L18.0213 25.554ZM18.0213 24.5116H24.4807V19.6619C22.5371 19.6272 20.6022 19.3888 18.7064 18.9533C18.2795 20.7714 18.0477 22.6307 18.0195 24.5008L18.0213 24.5116ZM24.4807 11.1304C22.1341 11.475 20.1104 14.1144 18.9771 17.9328H18.9793C20.7864 18.3424 22.6303 18.5656 24.4807 18.5981L24.4807 11.1304ZM21.5686 38.5519C19.7723 37.009 18.624 34.5407 17.9631 32.2998C16.6327 32.6617 15.3348 33.1319 14.0803 33.704C15.9849 36.0964 18.6218 37.7996 21.5858 38.5516L21.5686 38.5519ZM11.0295 25.5218C11.1226 28.1418 11.9547 30.6837 13.4324 32.8485C14.804 32.2114 16.2297 31.6935 17.6922 31.3012C17.2416 29.4072 16.9989 27.4677 16.9707 25.5218L11.0295 25.5218ZM11.0295 24.4795L16.9774 24.4773C17.0056 22.5314 17.2461 20.5919 17.6968 18.6979C16.2364 18.3057 14.8107 17.7878 13.4369 17.1507C11.9613 19.3155 11.1271 21.8574 11.0362 24.4773L11.0295 24.4795ZM21.5686 11.4495V11.4473C18.6044 12.1993 15.9673 13.9025 14.0653 16.2949C15.3177 16.867 16.6178 17.3372 17.9481 17.6991C18.609 15.4801 19.7574 12.9902 21.5536 11.447L21.5686 11.4495ZM47.6391 22.6422C48.547 22.6422 49.3725 23.1601 49.7669 23.9749C50.159 24.7919 50.0507 25.7627 49.4852 26.4691C48.9197 27.1777 47.9988 27.5006 47.1169 27.2991C46.2329 27.0954 45.5439 26.4041 45.3445 25.5222H40.0121V24.4777H45.3445C45.5894 23.4072 46.5406 22.6466 47.6391 22.6422ZM27.9215 39.7397L32.1814 47.1229H37.9668C38.2311 45.9527 39.334 45.1661 40.5258 45.2982C41.7196 45.4326 42.6231 46.4402 42.6231 47.6429C42.6231 48.8435 41.7196 49.8533 40.5258 49.9855C39.3341 50.1177 38.2312 49.3332 37.9668 48.1609H31.8652C31.6788 48.1609 31.5077 48.0612 31.4145 47.9008L26.8058 39.9135C27.172 39.8702 27.5425 39.8073 27.9152 39.7423L27.9215 39.7397ZM36.9352 15.8853L38.3545 13.4279C38.4476 13.2675 38.6188 13.1679 38.803 13.1679H42.1983C42.4648 11.9955 43.5677 11.2111 44.7594 11.3454C45.9533 11.4797 46.8547 12.4874 46.8547 13.6879C46.8547 14.8885 45.9533 15.8983 44.7594 16.0305C43.5677 16.1648 42.4648 15.3804 42.1983 14.2102H39.1042L37.5961 16.8171C37.3859 16.5007 37.1692 16.1908 36.9352 15.8853ZM26.8232 10.0887L31.4319 2.10134V2.09917C31.5251 1.93881 31.6963 1.83913 31.8804 1.83913H37.982C38.2464 0.666771 39.3492 -0.117649 40.5432 0.0144928C41.737 0.146679 42.6406 1.15651 42.6406 2.35705C42.6406 3.55975 41.737 4.56741 40.5432 4.70177C39.3493 4.83395 38.2464 4.04732 37.982 2.87713H32.1816L27.9218 10.2603C27.5621 10.1932 27.1894 10.1325 26.8124 10.0891L26.8232 10.0887ZM37.5942 33.193L39.1023 35.7999H42.1986C42.4651 34.6319 43.5636 33.8518 44.7554 33.984C45.9449 34.1183 46.8441 35.1238 46.8441 36.3222C46.8441 37.5205 45.9449 38.526 44.7554 38.6603C43.5637 38.7925 42.4651 38.0102 42.1986 36.8444H38.8033C38.6191 36.8422 38.4479 36.7426 38.3547 36.5822L36.9355 34.1248C37.1674 33.8193 37.384 33.5094 37.5942 33.193Z" fill="url(#paint0_linear_25_843)"/>
<defs>
<linearGradient id="paint0_linear_25_843" x1="48.25" y1="30.75" x2="1.75" y2="16.75" gradientUnits="userSpaceOnUse">
<stop stop-color="#2271FF" stop-opacity="0.9"/>
<stop offset="0.439181" stop-color="#883DED" stop-opacity="0.945933"/>
<stop offset="1" stop-color="#FC34DD"/>
</linearGradient>
</defs>
</svg>
