<svg width="38" height="56" viewBox="0 0 38 56" fill="none" xmlns="http://www.w3.org/2000/svg">
<path d="M5.28026 51.1016C4.48755 50.4226 4.24791 49.489 4.86635 49.489C5.47521 49.489 5.24917 48.6861 4.602 48.55C4.26274 48.4787 7.71256 48.4053 12.2683 48.387L20.5514 48.3537L20.4334 49.8761C20.3174 51.3723 20.3008 51.393 19.4659 51.0819C18.7429 50.8125 18.6949 50.7185 19.1433 50.4505C19.4331 50.2773 19.6702 50.0539 19.6702 49.9541C19.6702 49.6169 18.3205 49.7697 18.1413 50.1272C18.0351 50.339 17.9523 50.2819 17.9357 49.9854C17.909 49.5109 18.268 49.3674 19.2296 49.4679C19.4719 49.4932 19.6702 49.3169 19.6702 49.076C19.6702 48.7647 19.3137 48.6382 18.4365 48.6382H17.2029V50.0563C17.2029 50.8363 17.0443 51.4744 16.8504 51.4744C16.6565 51.4744 16.4979 51.2192 16.4979 50.9072C16.4979 50.529 16.2629 50.3399 15.793 50.3399C15.4053 50.3399 15.088 50.4832 15.088 50.6583C15.088 50.8771 14.9213 50.8653 14.555 50.6206C14.1522 50.3516 14.1188 50.1708 14.4182 49.8805C14.9171 49.3967 14.5796 48.6381 13.8654 48.6381C13.4507 48.6381 13.3231 48.983 13.3145 50.1272C13.3053 51.344 13.2245 51.5384 12.8726 51.1908C12.6357 50.9568 12.2046 50.7234 11.9145 50.6721C11.6244 50.6208 11.1367 50.3975 10.8306 50.1757C10.1092 49.6531 9.82541 49.6675 8.9947 50.269C8.33787 50.7445 8.31474 50.7416 8.44287 50.1981C8.54367 49.7704 8.94493 49.5911 10.0734 49.4696C11.4053 49.3261 11.5478 49.3652 11.3668 49.8241C11.1154 50.4615 11.9889 50.5271 12.617 49.9181C13.518 49.0444 12.8002 48.6828 10.2639 48.7327L7.86238 48.7799L7.6534 50.1981C7.53846 50.9781 7.41951 51.3439 7.38905 51.0111C7.35556 50.6454 7.02244 50.3406 6.54671 50.2405C5.39656 49.9985 4.96904 50.4986 5.74004 51.1841C6.63782 51.9824 6.22129 51.9077 5.28026 51.1016ZM16.498 49.3472C16.498 48.8272 16.3101 48.6381 15.7931 48.6381C15.2761 48.6381 15.0881 48.8272 15.0881 49.3472C15.0881 49.8672 15.2761 50.0563 15.7931 50.0563C16.3101 50.0563 16.498 49.8672 16.498 49.3472ZM7.26679 49.2763C7.20146 49.0033 6.83512 48.7799 6.45272 48.7799C6.07033 48.7799 5.70397 49.0033 5.63866 49.2763C5.54968 49.6481 5.75402 49.7727 6.45272 49.7727C7.15143 49.7727 7.35579 49.6481 7.26679 49.2763ZM31.2571 51.2617C30.8186 50.8118 30.8311 50.8018 31.3902 51.1546C31.7294 51.3687 32.007 51.5921 32.007 51.651C32.007 51.8844 31.7176 51.7341 31.2571 51.2617ZM26.0803 50.8363C26.0328 50.2673 25.8274 50.0563 25.3212 50.0563C24.8716 50.0563 24.694 50.1959 24.8166 50.453C24.9206 50.6712 24.8507 50.9269 24.6611 51.0212C24.1564 51.2722 23.2837 50.9348 23.0255 50.3889C22.8456 50.0086 22.8892 49.9848 23.245 50.269C23.4891 50.464 23.9006 50.6235 24.1594 50.6235C24.5208 50.6235 24.5425 50.4919 24.2528 50.0563C23.913 49.5454 23.9847 49.489 24.9747 49.489C26.7409 49.489 26.0166 48.8025 24.0492 48.6118C23.0686 48.5167 24.7662 48.4241 27.9539 48.3987L33.5934 48.3537L33.4727 49.9146C33.3564 51.4168 32.7122 51.8831 32.7122 50.465C32.7122 49.6498 32.1558 49.5777 31.201 50.269C30.5442 50.7445 30.521 50.7416 30.6476 50.1981C30.7345 49.8247 31.11 49.6001 31.7459 49.5411C33.33 49.394 32.9587 48.6381 31.3023 48.6381H29.8924L29.8812 50.1272C29.8721 51.3439 29.7913 51.5384 29.4394 51.1908C29.2025 50.9568 28.7714 50.7249 28.4813 50.6756C27.6361 50.5318 26.8056 49.7317 27.337 49.5732C28.0381 49.364 27.8471 48.6381 27.0911 48.6381C26.5143 48.6381 26.3838 48.8762 26.2751 50.1272C26.2039 50.9461 26.1162 51.2653 26.0803 50.8363ZM29.1836 49.9181C29.4229 49.6861 29.5266 49.3032 29.4141 49.0672C29.1552 48.5243 28.1299 48.5029 28.1299 49.0404C28.1299 49.2616 28.0337 49.6445 27.916 49.8913C27.6391 50.4718 28.5918 50.4919 29.1836 49.9181ZM14.5599 47.22C14.4401 47.064 14.5007 46.9364 14.6946 46.9364C14.8884 46.9364 15.1451 47.064 15.2649 47.22C15.3847 47.376 15.3241 47.5036 15.1302 47.5036C14.9364 47.5036 14.6797 47.376 14.5599 47.22ZM30.7736 47.22C30.4979 46.861 30.9646 46.861 31.6548 47.22C32.1105 47.4569 32.1012 47.4955 31.5875 47.4993C31.2597 47.5015 30.8934 47.376 30.7736 47.22ZM10.2284 45.2575C7.19778 45.0866 6.464 44.766 6.76801 43.7455C6.87383 43.3902 6.69985 43.2481 6.15577 43.2453C3.99998 43.2343 2.75216 42.2219 2.75216 40.4837C2.75216 40.0392 2.58782 39.5432 2.38696 39.3816C1.74275 38.8632 2.77324 35.3617 3.71634 34.8645C4.15535 34.6331 4.51452 34.1796 4.51452 33.8568C4.51452 33.534 4.83174 32.9454 5.21946 32.5488C5.60718 32.1521 5.9244 31.9634 5.9244 32.1292C5.9244 32.2951 5.72614 32.5995 5.48381 32.8056C5.24149 33.0118 5.01027 33.6272 4.96998 34.1731C4.91001 34.986 4.96325 35.0728 5.26383 34.6523C5.46573 34.3698 5.54332 33.955 5.43625 33.7305C5.21349 33.2633 5.76682 33.1713 6.11018 33.6183C6.23524 33.7812 6.15164 34.0946 5.9244 34.315C5.69717 34.5353 5.59961 34.8306 5.70761 34.9712C5.81561 35.1119 5.75456 35.6461 5.57193 36.1586C5.21142 37.1701 5.4664 37.8832 5.96307 37.2525C6.19912 36.9527 6.26728 36.9773 6.27148 37.364C6.2743 37.637 6.14999 37.8603 5.9949 37.8603C5.49679 37.8603 4.86699 37.1952 4.86699 36.6691C4.86699 36.3883 4.72326 36.1586 4.54759 36.1586C4.05276 36.1586 3.72408 38.7708 3.99739 40.5313C4.23885 42.0864 4.867 42.7522 4.867 41.4531C4.867 41.0891 4.98596 40.6956 5.13136 40.5786C5.27675 40.4617 5.41837 40.0256 5.44607 39.6095C5.52064 38.4893 5.5437 38.4277 5.88828 38.4277C6.3147 38.4277 6.19253 40.217 5.74819 40.4797C5.54753 40.5983 5.65278 40.6899 5.99256 40.6924C6.32082 40.6946 6.81403 40.4387 7.08854 40.1233C7.53646 39.6087 7.63472 39.5954 8.04616 39.9944C8.29833 40.2389 8.73761 40.367 9.02233 40.2791C9.61734 40.0953 11.9164 40.6977 11.9164 41.0373C11.9164 41.162 12.1089 41.2321 12.3441 41.1931C12.5793 41.1541 12.9342 41.4094 13.1326 41.7603C13.5029 42.4151 14.2509 42.6824 13.9265 42.044C13.3901 40.9883 13.3789 40.6736 13.9063 41.4767C14.2392 41.9837 14.7093 42.3985 14.9508 42.3985C15.2291 42.3985 14.9904 41.7749 14.2994 40.6967C13.5675 39.5549 12.9961 38.9949 12.5625 38.9949C11.7621 38.9949 11.7506 39.2397 12.5089 40.1373L13.1013 40.8385L12.3326 40.2982C11.3355 39.5974 11.3575 39.0441 12.395 38.7267C13.1992 38.4806 13.327 38.1996 13.7563 35.7332C13.8467 35.2138 13.6247 35.159 11.1234 35.0831C8.49001 35.0033 8.39171 35.0234 8.39171 35.6426V36.2849L7.84301 35.6545C7.54123 35.3078 6.99105 35.0242 6.62043 35.0242C6.15037 35.0242 6.01132 34.8883 6.16077 34.575C6.27859 34.3279 6.47188 34.2322 6.5903 34.3622C6.92093 34.7254 8.53551 34.7208 8.8269 34.3558C9.01077 34.1255 9.08742 34.1391 9.09126 34.4028C9.09408 34.607 9.25527 34.6951 9.44912 34.5987C10.146 34.2521 9.78224 33.9297 8.8323 34.0521C7.9084 34.1711 7.89504 34.1569 8.54719 33.7497C8.92349 33.5147 9.44836 33.3224 9.71352 33.3224C9.9787 33.3224 10.0933 33.1892 9.96828 33.0264C9.84322 32.8635 9.90143 32.5747 10.0976 32.3844C10.2938 32.1942 10.6582 31.4021 10.9074 30.6242C11.3461 29.2547 11.368 29.2368 11.5968 30.0607C11.8357 30.9212 11.8783 30.8204 12.0445 29.0021C12.0835 28.5759 12.329 28.0654 12.59 27.8676C12.9855 27.568 13.0319 27.7446 12.8681 28.9262C12.7599 29.7062 12.5639 30.5677 12.4324 30.8407C12.2699 31.1782 12.3626 31.337 12.7222 31.337C13.013 31.337 13.3454 31.1388 13.4609 30.8966C13.6548 30.49 13.2582 27.4758 12.7585 25.5581C12.605 24.9692 12.6623 24.8005 12.9648 24.951C13.2371 25.0864 13.3594 24.9747 13.3144 24.6319C13.1469 23.357 13.4466 23.3884 13.695 24.6718C14.0926 26.7261 14.0865 30.1929 13.6833 31.3243C13.4645 31.9383 13.4595 32.3625 13.67 32.4671C14.1354 32.6986 13.6972 33.8897 13.1467 33.8897C12.8992 33.8897 12.6055 34.0811 12.4939 34.3151C12.3703 34.5742 12.4932 34.7405 12.8087 34.7405C13.0934 34.7405 13.3287 34.581 13.3317 34.386C13.3357 34.1251 13.4171 34.1331 13.6401 34.4163C13.9906 34.8613 14.4534 34.4387 14.2664 33.8443C14.2006 33.6353 14.2077 33.5464 14.2821 33.6468C14.4616 33.8889 15.7936 33.6016 15.7936 33.3208C15.7936 33.2004 15.5161 33.1195 15.177 33.1412C14.7889 33.166 14.5474 32.9703 14.5255 32.6133C14.499 32.1817 14.5258 32.1647 14.6379 32.5424C14.7774 33.0123 15.4879 33.277 15.3994 32.826C15.2635 32.1335 15.5159 32.1547 15.9826 32.8749C16.5516 33.7528 16.1836 34.2759 15.2087 33.9749C14.9488 33.8946 14.7362 33.9528 14.7362 34.1042C14.7362 34.6539 16.3104 34.3012 16.7057 33.6629C17.0327 33.135 16.9831 32.8109 16.4457 31.9627C15.9966 31.2538 15.9109 30.8801 16.1809 30.8077C16.4004 30.7488 16.7179 30.8757 16.8864 31.0897C17.0959 31.3559 17.1944 31.1822 17.1981 30.5403C17.2013 30.0102 17.0558 29.6752 16.8642 29.7705C16.6763 29.8639 16.5343 29.5867 16.546 29.1491C16.5575 28.7145 16.3782 27.7451 16.1473 26.9949C15.897 26.1814 15.8436 25.3229 16.015 24.8677C16.2462 24.2535 16.3387 24.4922 16.4886 26.0899C16.6458 27.7663 16.7379 27.987 17.0801 27.508C17.303 27.196 17.5316 25.9835 17.5881 24.8135C17.6594 23.3357 17.8854 22.4565 18.3283 21.9336C19.1531 20.9596 19.1343 20.7534 18.2609 21.1923C17.8732 21.3871 17.556 21.7711 17.556 22.0456C17.556 22.32 17.3181 22.5446 17.0273 22.5446C16.7365 22.5446 16.4986 22.7533 16.4986 23.0083C16.4986 23.3438 16.2933 23.262 15.756 22.7124C15.1748 22.1178 14.7727 21.9747 13.9055 22.0536C12.9554 22.1402 12.7666 22.2935 12.5796 23.1296L12.3617 24.1046L12.3105 22.97C12.2508 21.6488 11.93 20.5514 11.611 20.5773C11.4882 20.5872 10.7929 21.1703 10.0659 21.873C9.33896 22.5757 8.74416 23.0006 8.74416 22.8173C8.74416 22.6339 8.51132 22.5558 8.22673 22.6437C7.94215 22.7316 7.61558 22.6814 7.50099 22.5322C7.38641 22.3831 7.46064 22.261 7.66594 22.261C7.87124 22.261 8.02081 21.9738 7.99833 21.6228C7.96756 21.1426 7.91755 21.1075 7.79624 21.481C7.56152 22.2038 7.21956 22.0948 6.46073 21.0556C6.09056 20.5486 5.58054 19.9651 5.32732 19.759C5.07409 19.5528 4.86692 19.1456 4.86692 18.8539C4.86692 18.5623 4.688 18.2347 4.46933 18.1259C3.92744 17.8564 4.31937 15.0049 5.06325 13.8048C5.40186 13.2587 5.5504 12.5872 5.42298 12.1787C5.30363 11.7961 5.35788 11.483 5.54356 11.483C5.91517 11.483 6.47134 9.12164 6.31181 8.22124C6.25653 7.90924 5.98128 7.4464 5.70012 7.19269C5.24995 6.78642 5.26436 6.70768 5.82101 6.53268C6.38394 6.35571 6.34267 6.2626 5.44362 5.68126L4.43417 5.02854L3.24465 5.63222C2.59042 5.96424 1.95107 6.54154 1.82387 6.9151C1.69668 7.28867 1.28247 7.84387 0.903421 8.14888C0.379295 8.57064 0.312784 8.78158 0.625691 9.02964C0.936233 9.27582 1.13939 9.25147 1.454 8.93037C1.89449 8.48082 3.23434 8.24827 2.90368 8.67877C2.7974 8.81715 2.49125 8.93037 2.22334 8.93037C1.55809 8.93037 1.32634 9.30175 1.6934 9.77964C1.93809 10.0982 2.13953 10.0397 2.71585 9.48245C3.11059 9.1008 3.43884 8.62899 3.44529 8.43399C3.45826 8.04156 3.98535 8.00813 5.01975 8.3341C5.48825 8.48173 5.57091 8.61371 5.2841 8.75633C5.05465 8.87044 4.72184 8.89167 4.54455 8.80349C3.66848 8.36781 4.1023 10.1462 5.00019 10.6713C5.39238 10.9007 4.96239 11.4844 4.40553 11.4787C4.08645 11.4754 4.08807 11.422 4.41226 11.2562C4.71786 11.0999 4.63244 10.9343 4.11103 10.6723C3.51105 10.3708 3.43255 10.3725 3.66402 10.6821C3.87462 10.9637 3.79157 10.9575 3.33175 10.6572C2.90032 10.3754 2.83921 10.1968 3.12549 10.0544C3.41973 9.90811 3.42435 9.79847 3.14216 9.65813C2.9276 9.55142 2.73181 9.56738 2.70706 9.69358C2.48136 10.8449 2.58039 11.2691 3.14977 11.59C3.51014 11.7932 3.68704 12.0616 3.54288 12.1865C3.39872 12.3115 3.73247 12.3264 4.28455 12.2196C5.02538 12.0764 5.24856 12.1216 5.13651 12.3924C4.86951 13.0377 3.76776 12.9796 3.17003 12.2888C2.85405 11.9236 1.9963 11.1 1.2639 10.4586C-0.269422 9.11575 -0.308404 8.96942 0.615354 8.02442C0.991054 7.64008 1.4014 6.99559 1.5272 6.59221C1.66252 6.15837 2.15608 5.72544 2.73558 5.53229C3.27437 5.3527 3.9337 4.87722 4.20081 4.47566C4.46788 4.0741 5.37919 3.50658 6.22597 3.2145C7.7434 2.69109 7.78203 2.69166 8.91325 3.25425C9.54449 3.56817 10.3013 3.82502 10.5951 3.82502C10.8888 3.82502 11.2121 4.08029 11.3135 4.39228C11.4149 4.70427 11.6908 4.95954 11.9265 4.95954C12.2585 4.95954 12.2562 4.86364 11.9164 4.53409C11.671 4.29619 11.6331 4.10865 11.8305 4.10865C12.2961 4.10865 12.9232 2.79704 13.0492 1.55925C13.1411 0.657567 13.2659 0.554779 14.4566 0.400457C15.978 0.203269 16.3118 0.327068 16.6569 1.21637C16.8605 1.74115 17.0083 1.804 17.4093 1.53619C17.6838 1.35288 17.9084 1.3268 17.9084 1.47823C17.9084 1.62967 17.2856 1.95045 16.5243 2.19106C15.2516 2.59335 15.1577 2.59111 15.3567 2.16317C15.5447 1.75883 15.4951 1.74885 14.9783 2.08707C14.4644 2.42352 14.3837 2.41157 14.3837 1.99913C14.3837 1.6282 14.6191 1.55179 15.4411 1.65602C16.5602 1.79795 16.8025 1.54484 16.0369 1.03354C15.3793 0.594342 13.4896 1.05881 13.5496 1.64496C13.5754 1.89802 13.6964 2.42486 13.8183 2.81567C13.9849 3.34986 13.9191 3.48898 13.5532 3.37598C12.813 3.14741 12.5376 4.41497 13.1995 5.00356C13.5029 5.27328 13.668 5.6609 13.5665 5.86491C13.4465 6.10613 13.3722 6.06227 13.3541 5.73951C13.3388 5.46652 13.1725 5.24316 12.9845 5.24316C12.7966 5.24316 12.6637 5.68987 12.6892 6.23586C12.7377 7.27442 13.2883 7.52348 14.0032 6.83026C14.248 6.59291 14.3166 6.10579 14.1729 5.62484L13.9318 4.81771L14.8126 5.4675L15.6935 6.1173L16.2644 5.41617C16.795 4.76461 16.7923 4.70596 16.2263 4.58656C15.8914 4.51588 16.1438 4.44325 16.7873 4.42515C17.7883 4.39702 17.9411 4.30045 17.8447 3.75698C17.779 3.38599 17.4388 3.08041 17.0272 3.02244C16.3222 2.92315 16.3222 2.92315 17.0272 3.37476C17.6052 3.74507 17.6203 3.79501 17.1108 3.65214C16.7691 3.55631 16.2259 3.65186 15.9037 3.86417C15.4002 4.19619 15.4065 4.14089 15.9487 3.47047C17.0477 2.11157 18.6133 2.61476 18.6133 4.32691C18.6133 5.15579 18.7185 5.2706 19.4063 5.19198C20.0451 5.11898 20.1994 4.91993 20.1994 4.16921C20.1994 2.87357 21.5683 2.22178 22.4644 3.09068C22.7805 3.39712 22.7778 3.54029 22.4531 3.70176C22.1834 3.83592 22.1211 3.79278 22.2821 3.5832C22.6863 3.05693 21.4396 2.84727 20.8288 3.33879C19.9778 4.02353 20.5175 4.77665 21.7007 4.55556C22.232 4.45627 22.4819 4.47545 22.2561 4.59817C21.95 4.76457 21.9709 4.95926 22.3386 5.36391C22.8143 5.88741 22.8564 5.88852 23.5339 5.39512C23.9202 5.11386 24.1373 4.74125 24.0165 4.5671C23.8591 4.34007 23.9191 4.34105 24.2288 4.57055C24.5688 4.82259 24.5499 5.15429 24.1398 6.13051C23.8534 6.81244 23.4623 7.37037 23.2707 7.37037C23.0791 7.37037 22.5925 7.68945 22.1894 8.07944C21.7109 8.54235 21.4524 8.64574 21.4447 8.37725C21.4362 8.07817 21.3273 8.05108 21.0453 8.27798C20.7633 8.50489 20.4727 8.44123 19.9798 8.04458C19.4408 7.61089 19.1573 7.5615 18.5953 7.80355C18.2066 7.97095 17.9832 8.2312 18.099 8.38192C18.2148 8.53263 18.4307 8.59566 18.5788 8.52198C18.727 8.4483 18.8482 8.57611 18.8482 8.806C18.8482 9.12168 18.656 9.07872 18.063 8.63039C17.6137 8.2908 17.1862 8.15588 17.0639 8.31511C16.9464 8.46819 16.5161 8.52313 16.1077 8.4372C15.4817 8.30547 15.396 8.12879 15.561 7.31061C15.699 6.62621 15.6322 6.37587 15.3345 6.4611C15.1022 6.52759 14.9509 6.85915 14.9982 7.19792C15.0706 7.71668 14.981 7.76943 14.4301 7.53218C13.9623 7.33074 13.5864 7.3639 13.1104 7.64859C12.4644 8.03506 12.4687 8.0658 13.2583 8.70118C14.0141 9.30931 14.1035 9.32131 14.5209 8.87023C14.9362 8.42147 15.0346 8.41926 15.8224 8.84082C16.2911 9.09165 16.8768 9.49839 17.1239 9.74466C17.4934 10.1129 17.6969 10.1303 18.2694 9.84257C18.6524 9.65015 18.9656 9.6065 18.9656 9.74556C18.9656 10.3698 21.0522 9.8655 22.0594 8.99786C23.23 7.9895 23.7218 7.86336 24.0228 8.49438C24.1369 8.73366 23.8625 9.13612 23.3748 9.44479C22.7797 9.82145 22.5877 10.1609 22.727 10.5897C22.9659 11.3249 22.9999 11.3284 23.8962 10.7108C24.3706 10.384 24.6052 9.87334 24.6052 9.16759C24.6052 8.58748 24.7644 8.03369 24.9589 7.93691C25.4363 7.69949 25.3293 4.35241 24.8282 3.8501C24.6086 3.6299 24.4128 3.247 24.393 2.99922C24.2937 1.75431 24.2253 1.556 23.8952 1.556C23.6916 1.556 23.6179 1.92222 23.724 2.40688C23.8265 2.87487 23.7664 3.25777 23.5905 3.25777C23.0807 3.25777 22.8392 2.45766 23.3032 2.3058C23.584 2.21387 23.5593 2.16061 23.2288 2.14566C22.8447 2.12831 22.8752 1.99736 23.3649 1.56193C23.9402 1.0504 23.945 0.984771 23.4195 0.822507C23.1023 0.724567 22.6152 0.714738 22.3369 0.800669C22.0586 0.886594 21.7672 0.804519 21.6893 0.618285C21.5839 0.366446 21.3974 0.379427 20.9615 0.668947C20.6392 0.883044 20.3755 0.938039 20.3755 0.791156C20.3755 0.644271 19.7411 0.527071 18.9656 0.530716C18.1902 0.534346 17.5558 0.654537 17.5558 0.797778C17.5558 0.941019 17.3178 0.899326 17.027 0.705128C16.0632 0.0614602 16.4721 -0.064045 19.23 0.029042C24.2263 0.197657 24.4861 0.279308 24.7952 1.77869C24.9147 2.3582 25.2777 3.25289 25.6019 3.76691C26.2845 4.84915 26.94 4.83256 29.0512 3.67969C29.7618 3.29166 30.4948 2.97417 30.6801 2.97417C31.4035 2.97417 32.9391 3.91431 33.4998 4.70045C33.8377 5.17416 34.3863 5.52683 34.7853 5.52683C35.7174 5.52683 36.5892 6.26931 36.5892 7.06307C36.5892 7.41775 36.9065 7.93895 37.2942 8.2213C37.6819 8.50365 37.9991 8.89056 37.9991 9.0811C37.9991 9.27163 36.9826 10.291 35.7401 11.3464C34.1806 12.6711 33.3074 13.2117 32.9203 13.0921C32.6119 12.9969 32.3596 12.7235 32.3596 12.4846C32.3596 12.2458 32.201 12.0503 32.0071 12.0503C31.5195 12.0503 31.5628 12.2411 32.2384 13.0708C33.0028 14.0096 33.4083 16.5566 32.9789 17.7229C32.8928 17.9569 32.694 18.5313 32.5372 18.9993C32.3804 19.4672 31.9591 20.1545 31.6009 20.5266C31.2427 20.8986 30.9497 21.3159 30.9497 21.454C30.9497 21.5921 30.5391 22.2284 30.0372 22.8681C29.365 23.7251 29.1759 24.2648 29.3188 24.9188C29.4255 25.4069 29.3765 26.2531 29.2099 26.7991C28.956 27.6312 28.9012 27.4363 28.8709 25.5936C28.8242 22.7463 28.2746 22.7327 28.1834 25.5766C28.0889 28.5199 27.7774 28.6129 27.7774 25.6978C27.7774 23.4183 27.7505 23.3451 26.5438 22.3453L25.3101 21.3231L25.2466 23.2811C25.1952 24.8647 25.1578 24.9815 25.0511 23.8919C24.9593 22.9551 24.7638 22.5446 24.4096 22.5446C24.1295 22.5446 23.9002 22.3532 23.9002 22.1192C23.9002 21.5588 23.195 21.5941 22.2962 22.1996C21.7122 22.5929 21.6023 22.9306 21.7241 23.9569C21.807 24.6557 21.6658 26.3149 21.4102 27.6441L20.9456 30.0608L20.5181 28.6427C20.2831 27.8627 20.0971 26.5225 20.1049 25.6646C20.1127 24.8066 20.1799 24.4237 20.2542 24.8137C20.7412 27.3683 20.8035 27.5255 21.0978 26.9409C21.439 26.2631 21.5051 24.3501 21.2172 23.4863C21.0968 23.1251 20.7537 22.8835 20.3924 22.9054C19.9588 22.9317 19.828 23.1098 19.955 23.5007C20.0949 23.9312 20.0027 24.0173 19.551 23.8778C18.3101 23.4947 17.9093 23.9484 17.8831 25.7659C17.8693 26.7242 17.7392 28.5293 17.5939 29.7773C17.4483 31.0282 17.4679 32.1216 17.6376 32.2141C17.8069 32.3064 17.9182 32.4979 17.8851 32.6396C17.7093 33.3901 17.999 33.6063 19.1811 33.6063C20.4301 33.6063 20.4499 33.5888 20.2358 32.6707C20.0904 32.0469 20.1927 31.5507 20.5429 31.1817C21.0342 30.6637 21.0542 30.6874 20.8539 31.55C20.7097 32.1709 20.777 32.4718 21.0601 32.4718C21.3296 32.4718 21.3942 32.6903 21.2403 33.0806C21.0366 33.597 21.1131 33.6656 21.7449 33.5326C22.1545 33.4464 22.58 33.4936 22.6906 33.6375C22.8011 33.7814 23.0441 33.8233 23.2305 33.7306C23.4169 33.6379 24.1003 33.5223 24.7491 33.4738C25.7612 33.3981 25.9036 33.4625 25.7526 33.9273C25.6133 34.356 25.4734 34.4003 25.0828 34.1394C24.6911 33.8778 24.6315 33.8986 24.7942 34.2398C24.907 34.4763 25.3894 34.6699 25.8662 34.6699C26.4577 34.6699 26.6344 34.5685 26.4222 34.3508C26.2511 34.1753 26.0858 33.8084 26.0547 33.5354C26.0237 33.2624 25.9681 32.805 25.9312 32.519C25.8942 32.2331 25.6578 31.9991 25.4057 31.9991C25.1124 31.9991 25.0193 32.2118 25.1471 32.5899C25.3021 33.0488 25.1675 32.9944 24.5448 32.3465C24.1038 31.8875 23.7139 31.0579 23.6784 30.5029C23.6429 29.9478 23.5065 28.8555 23.3753 28.0755C23.2338 27.2343 23.2926 26.3689 23.5198 25.9483C23.8313 25.3716 23.8629 25.5305 23.6894 26.7992C23.4304 28.6922 24.0942 28.4642 24.5742 26.4952L24.8804 25.2392L24.919 26.4538C24.9403 27.1218 25.2102 28.1428 25.5189 28.7228C25.8276 29.3028 26.3177 30.4056 26.608 31.1735C27.1843 32.6976 28.0281 33.8899 28.5305 33.8899C28.7062 33.8899 29.0286 33.5746 29.2468 33.1892C29.5897 32.5836 29.5288 32.4098 28.7986 31.9088C28.292 31.5612 28.1654 31.3591 28.4824 31.4041C29.0505 31.4846 29.076 31.2065 28.6967 29.0682C28.5155 28.0472 28.5973 28.1602 29.1057 29.6335C29.5198 30.8335 29.9414 31.5062 30.3155 31.5642C30.6313 31.6131 30.9707 31.8229 31.0696 32.0304C31.1937 32.2906 31.0342 32.3623 30.5551 32.2614C29.8741 32.1181 29.8729 32.1347 30.4933 33.1144C30.8413 33.6638 31.2454 34.0554 31.3913 33.9844C31.5372 33.9135 31.4716 33.576 31.2455 33.2345C30.8737 32.673 30.8905 32.6508 31.4207 33.0028C31.7433 33.2169 32.0071 33.5679 32.0071 33.7828C32.0071 33.9977 32.2343 34.1735 32.5119 34.1735C32.7894 34.1735 33.3664 34.5689 33.794 35.0521C34.4631 35.8082 34.5701 36.2967 34.5625 38.5588C34.5559 40.5285 34.406 41.3684 33.9642 41.9111C33.3423 42.6749 32.4952 43.0671 31.9997 42.8207C31.8367 42.7397 31.5933 42.8167 31.4587 42.9919C31.2851 43.218 31.1179 43.1988 30.8826 42.9256C30.6516 42.6575 30.6187 42.7344 30.7742 43.179C31.1209 44.171 30.6697 44.8758 29.4728 45.2116C28.3286 45.5325 15.639 45.5633 10.2282 45.2582L10.2284 45.2575ZM12.371 44.3837C12.2697 44.0717 12.1259 43.8164 12.0516 43.8164C11.9773 43.8164 11.9164 44.0717 11.9164 44.3837C11.9164 44.6957 12.0602 44.951 12.2359 44.951C12.4116 44.951 12.4724 44.6957 12.371 44.3837ZM13.5278 44.431C13.5278 44.145 13.3456 43.911 13.1229 43.911C12.9003 43.911 12.7942 44.145 12.8871 44.431C12.98 44.717 13.1622 44.951 13.2919 44.951C13.4216 44.951 13.5278 44.717 13.5278 44.431ZM14.6172 44.5432C14.492 44.2807 14.6983 44.0924 15.1963 44.0146C15.8358 43.9146 15.8019 43.887 15.0006 43.8551C14.2503 43.8252 14.0313 43.9446 14.0313 44.3837C14.0313 44.6957 14.2068 44.951 14.4214 44.951C14.636 44.951 14.7241 44.7675 14.6172 44.5432ZM15.7936 44.6673C15.7936 44.5113 15.635 44.3837 15.4411 44.3837C15.2473 44.3837 15.0887 44.5113 15.0887 44.6673C15.0887 44.8233 15.2473 44.951 15.4411 44.951C15.635 44.951 15.7936 44.8233 15.7936 44.6673ZM17.9084 44.6319C17.9084 44.4954 17.5119 44.3837 17.0273 44.3837C16.5426 44.3837 16.1461 44.4954 16.1461 44.6319C16.1461 44.7684 16.5426 44.8801 17.0273 44.8801C17.5119 44.8801 17.9084 44.7684 17.9084 44.6319ZM19.6708 44.6673C19.6708 44.5113 19.3536 44.3837 18.9659 44.3837C18.5781 44.3837 18.2609 44.5113 18.2609 44.6673C18.2609 44.8233 18.5781 44.951 18.9659 44.951C19.3536 44.951 19.6708 44.8233 19.6708 44.6673ZM24.6054 44.6293C24.6054 44.4942 23.5744 44.3837 22.3143 44.3837C21.0543 44.3837 20.0233 44.4902 20.0233 44.6204C20.0233 44.7506 21.0543 44.8611 22.3143 44.866C23.5744 44.8709 24.6054 44.7644 24.6054 44.6293ZM25.6628 44.6673C25.6628 44.5113 25.5042 44.3837 25.3104 44.3837C25.1165 44.3837 24.9579 44.5113 24.9579 44.6673C24.9579 44.8233 25.1165 44.951 25.3104 44.951C25.5042 44.951 25.6628 44.8233 25.6628 44.6673ZM26.7202 44.6673C26.7202 44.5113 26.5616 44.3837 26.3678 44.3837C26.1739 44.3837 26.0153 44.5113 26.0153 44.6673C26.0153 44.8233 26.1739 44.951 26.3678 44.951C26.5616 44.951 26.7202 44.8233 26.7202 44.6673ZM28.1301 44.6673C28.1301 44.5113 27.9715 44.3837 27.7777 44.3837C27.5838 44.3837 27.4252 44.5113 27.4252 44.6673C27.4252 44.8233 27.5838 44.951 27.7777 44.951C27.9715 44.951 28.1301 44.8233 28.1301 44.6673ZM20.1114 43.8923C18.5642 43.82 17.9084 43.6758 17.9084 43.4078C17.9084 42.9905 17.0469 42.6189 16.7093 42.8905C16.3079 43.2135 16.5014 43.5329 17.1154 43.5611C17.5153 43.5794 17.4224 43.6635 16.851 43.8003C16.316 43.9284 17.216 44.0082 19.1421 44.0033C21.4429 43.9975 21.7092 43.967 20.1114 43.8923ZM23.4526 43.9287C23.3354 43.8345 23.0314 43.8244 22.777 43.9063C22.4958 43.9969 22.5793 44.0641 22.9899 44.0777C23.3615 44.09 23.5697 44.023 23.4526 43.9287ZM25.751 43.9122C25.5086 43.8335 25.1121 43.8335 24.8698 43.9122C24.6274 43.9909 24.8257 44.0553 25.3104 44.0553C25.795 44.0553 25.9933 43.9909 25.751 43.9122ZM13.3316 43.1783C13.3351 42.9587 13.4356 42.9317 13.596 43.1074C14.0441 43.5982 16.0346 43.6081 16.2671 43.1208C16.4402 42.7577 16.1435 42.6819 14.5488 42.6819C13.0704 42.6819 12.6213 42.7811 12.6213 43.1074C12.6213 43.3414 12.7799 43.5328 12.9737 43.5328C13.1676 43.5328 13.3286 43.3733 13.3316 43.1783ZM18.9659 43.2492C18.9659 43.0932 18.8073 42.9656 18.6134 42.9656C18.4195 42.9656 18.2609 43.0932 18.2609 43.2492C18.2609 43.4052 18.4195 43.5328 18.6134 43.5328C18.8073 43.5328 18.9659 43.4052 18.9659 43.2492ZM20.0233 43.2492C20.0233 43.0932 19.8647 42.9656 19.6708 42.9656C19.4769 42.9656 19.3183 43.0932 19.3183 43.2492C19.3183 43.4052 19.4769 43.5328 19.6708 43.5328C19.8647 43.5328 20.0233 43.4052 20.0233 43.2492ZM23.0472 43.0637C22.9162 42.789 23.2079 42.6819 24.0877 42.6819C24.828 42.6819 25.3125 42.542 25.3157 42.3274C25.3199 42.0543 25.3877 42.0574 25.6112 42.3408C25.8429 42.6347 25.9923 42.6204 26.3539 42.2699C26.9489 41.693 27.4251 41.7122 27.4251 42.3132C27.4251 42.9184 27.9958 42.4767 28.2312 41.6892C28.3957 41.1389 28.402 41.1396 28.4417 41.7098C28.4763 42.208 28.721 42.3007 30.0455 42.3176C31.656 42.3381 32.4373 41.7799 31.6664 41.1596C31.416 40.9581 31.3006 41.0836 31.2969 41.5616C31.293 42.065 31.2072 42.1493 30.9854 41.8676C30.6455 41.4358 31.625 39.7973 32.0859 40.0265C32.2365 40.1014 32.3598 40.5456 32.3598 41.0136C32.3598 41.9806 33.0446 41.8685 33.0998 40.8925C33.1322 40.321 33.155 40.328 33.3841 40.9801L33.6332 41.6892L33.8729 40.9801C34.2039 40.0005 34.1375 36.9892 33.7697 36.3003C33.5552 35.8986 33.4413 36.3128 33.3797 37.7184L33.2927 39.7038L33.0647 37.7184C32.9393 36.6264 32.8063 35.9244 32.7691 36.1584C32.709 36.5366 32.6635 36.5366 32.3598 36.1584C32.1193 35.859 32.0133 36.2791 32.002 37.5766C31.9898 38.9688 31.8979 39.2987 31.6266 38.9238C31.4083 38.6223 30.8441 38.4275 30.1892 38.4275C29.2152 38.4275 29.1324 38.359 29.3322 37.7184C29.5134 37.1374 29.4248 37.0093 28.8417 37.0093C28.4503 37.0093 28.1301 37.1233 28.1301 37.2626C28.1301 37.4019 27.8614 37.5989 27.533 37.7003C26.9966 37.8659 27.0001 37.8276 27.5676 37.323C27.915 37.0141 28.0869 36.6152 27.9496 36.4365C27.8124 36.2578 28.1934 36.3169 28.7963 36.5677C29.4613 36.8445 29.8925 37.2441 29.8925 37.5839C29.8925 38.1869 30.9202 38.3784 30.9949 37.7893C31.0196 37.5943 31.0783 37.1308 31.1252 36.7593C31.1942 36.2131 30.9513 36.0018 29.8564 35.6558C28.3972 35.1945 28.2901 34.7702 29.6636 34.8915C30.3453 34.9517 30.5093 34.8353 30.5093 34.2913C30.5093 33.4396 29.7138 32.8323 29.416 33.4568C29.3025 33.6947 29.3633 33.8894 29.5511 33.8894C29.7388 33.8894 29.8925 34.0965 29.8925 34.3496C29.8925 34.6663 29.7551 34.7293 29.4519 34.5516C28.8147 34.1783 27.0727 34.0816 27.0727 34.4196C27.0727 34.8737 27.6987 35.0649 27.8959 34.6712C27.9941 34.4752 28.0744 34.6978 28.0744 35.1658C28.0744 35.6337 27.9922 35.8518 27.8918 35.6503C27.7523 35.3705 27.5932 35.3613 27.2188 35.6113C26.8344 35.868 26.6741 35.8247 26.4763 35.4104C26.2516 34.9399 26.1971 34.9597 25.9785 35.5912C25.7455 36.2644 25.7313 36.268 25.6979 35.6621C25.6713 35.178 25.45 35.024 24.7816 35.024C24.297 35.024 23.9004 35.065 23.9004 35.1151C23.9004 35.4855 25.2567 37.3352 25.5146 37.3165C25.693 37.3036 25.8589 37.4206 25.8831 37.5766C25.9073 37.7326 25.9628 37.924 26.0065 38.002C26.0501 38.08 26.1011 38.4949 26.1199 38.9238C26.1387 39.3528 26.5194 40.0216 26.9659 40.41C27.837 41.1678 27.9903 41.5474 27.4251 41.5474C27.2313 41.5474 27.0727 41.4019 27.0727 41.2241C27.0727 41.0463 26.8141 40.7487 26.4981 40.5628C26.1821 40.3769 25.8081 39.7246 25.6671 39.1134L25.4107 38.002L25.133 39.2389C24.9432 40.0839 24.4427 40.8247 23.5532 41.5771C22.8372 42.1829 22.3119 42.7273 22.3861 42.787C22.4603 42.8467 22.2679 42.9736 21.9587 43.0691C21.6495 43.1646 21.4843 43.1284 21.5915 42.9888C21.6988 42.8491 21.4691 42.8016 21.0811 42.8833C19.8942 43.133 20.2951 43.4455 21.8025 43.4455C22.8534 43.4455 23.1814 43.345 23.0472 43.0637ZM30.035 41.024C30.2001 40.8091 29.9766 40.6965 29.3845 40.6965C28.4364 40.6965 28.2429 40.2753 28.8635 39.562C29.1533 39.229 29.1852 39.2752 29.0106 39.7747C28.8209 40.3174 28.9229 40.4129 29.6924 40.4129C30.6337 40.4129 30.8947 40.7988 30.1904 41.1491C29.9383 41.2745 29.8792 41.2269 30.035 41.024ZM26.5439 36.442C26.6637 36.286 26.8317 36.1583 26.9172 36.1583C27.0027 36.1583 27.0726 36.286 27.0726 36.442C27.0726 36.598 26.9047 36.7256 26.6994 36.7256C26.4941 36.7256 26.4241 36.598 26.5439 36.442ZM24.9578 43.1886C24.9578 43.0658 24.6406 42.9654 24.2529 42.9654C23.8652 42.9654 23.5479 43.0851 23.5479 43.2314C23.5479 43.3777 23.8652 43.4782 24.2529 43.4547C24.6406 43.4311 24.9578 43.3114 24.9578 43.1886ZM26.7202 43.249C26.7202 43.093 26.5616 42.9654 26.3677 42.9654C26.1738 42.9654 26.0152 43.093 26.0152 43.249C26.0152 43.405 26.1738 43.5326 26.3677 43.5326C26.5616 43.5326 26.7202 43.405 26.7202 43.249ZM30.2076 43.0899C30.2927 43.0214 29.7714 42.9654 29.0492 42.9654C28.3269 42.9654 27.8272 43.0842 27.9387 43.2294C28.1275 43.4751 29.8613 43.3686 30.2076 43.0899ZM10.2577 42.4825C10.8791 42.4819 11.11 42.5357 10.7708 42.6023C9.92524 42.7682 9.99073 43.249 10.8589 43.249C11.2466 43.249 11.5638 43.0732 11.5638 42.8583C11.5638 42.6434 11.8277 42.2924 12.1502 42.0783C12.6803 41.7264 12.6973 41.7485 12.3265 42.3086C11.7291 43.2109 11.8246 43.4805 12.4764 42.7317C13.0408 42.0833 12.908 41.0875 12.2977 41.391C12.1169 41.4809 11.6003 41.4415 11.1496 41.3035C8.09947 40.3694 7.17867 40.3381 5.99331 41.1282C5.93439 41.1675 6.21137 41.6288 6.60882 42.1534C7.00628 42.678 7.33446 42.9157 7.33816 42.6817C7.34412 42.3036 7.38284 42.3036 7.68655 42.6817C7.91434 42.9654 8.03003 42.989 8.03363 42.7526C8.03645 42.5576 8.19764 42.3981 8.3915 42.3981C8.58536 42.3981 8.72519 42.4938 8.70223 42.6108C8.60874 43.0873 8.83657 43.3583 8.97669 42.9373C9.0751 42.6416 9.52099 42.4833 10.2577 42.4825ZM6.31385 42.7206C6.51194 42.9722 6.62014 42.9904 6.62366 42.7729C6.62648 42.5891 6.40824 42.261 6.13837 42.0438C5.86849 41.8266 5.56966 41.4027 5.47432 41.1017C5.32039 40.6159 5.29637 40.6242 5.26007 41.176C5.23758 41.5177 5.37087 41.8729 5.55626 41.965C5.74165 42.0572 5.84695 42.2881 5.79026 42.4781C5.73357 42.6681 5.7597 42.7134 5.84832 42.5788C5.93694 42.4441 6.14642 42.5079 6.31385 42.7206ZM22.1737 42.0379C25.5476 40.2242 25.2498 36.0077 21.6507 34.6332C18.0735 33.2672 14.0289 35.266 14.0321 38.3984C14.0356 41.796 18.7247 43.8923 22.1737 42.0379ZM16.9356 41.8324C14.466 40.6208 13.688 38.2144 15.1835 36.4128C16.266 35.1089 18.0657 34.3901 19.8164 34.5625C24.6611 35.0398 25.7619 40.1149 21.408 41.9012C19.8256 42.5505 18.3532 42.5279 16.9356 41.8324ZM20.8671 41.8422C23.692 40.9779 24.6385 38.0608 22.7221 36.1262C21.6442 35.038 19.2916 34.5492 17.5982 35.0616C15.4706 35.7054 14.3109 37.808 15.0667 39.651C15.8661 41.6002 18.4582 42.5793 20.8671 41.8422ZM18.3925 38.8621C18.2833 38.6332 18.2758 38.2822 18.3757 38.0821C18.4756 37.882 18.5699 38.0054 18.5852 38.3564C18.6007 38.7126 18.8374 38.9945 19.1209 38.9945C19.9586 38.9945 20.1762 38.3681 19.4807 37.9588C19.1232 37.7485 19.0002 37.5764 19.2074 37.5764C19.4146 37.5764 19.7816 37.7678 20.0229 38.0018C20.373 38.3413 20.373 38.5133 20.0229 38.8527C19.4636 39.395 18.6488 39.3997 18.3925 38.8621ZM18.9655 38.4273C18.9655 38.2713 19.1241 38.1436 19.3179 38.1436C19.5118 38.1436 19.6704 38.2713 19.6704 38.4273C19.6704 38.5833 19.5118 38.7109 19.3179 38.7109C19.1241 38.7109 18.9655 38.5833 18.9655 38.4273ZM3.55047 35.8374C3.40203 35.7185 3.2579 36.6035 3.23018 37.8042L3.17978 39.9872L3.50007 38.0205C3.67623 36.9387 3.69891 35.9564 3.55047 35.8374ZM31.6545 34.7401C31.6545 34.5841 31.4865 34.4565 31.2812 34.4565C31.0759 34.4565 31.006 34.5841 31.1258 34.7401C31.2456 34.8961 31.4136 35.0237 31.499 35.0237C31.5845 35.0237 31.6545 34.8961 31.6545 34.7401ZM10.9975 34.2909C11.1292 34.0147 11.0505 33.885 10.7929 33.9541C10.266 34.0955 9.97589 34.7401 10.4392 34.7401C10.6284 34.7401 10.8797 34.538 10.9975 34.2909ZM12.2025 34.1906C12.2906 33.9778 12.1585 33.8715 11.8941 33.9424C11.6397 34.0106 11.3621 34.234 11.2773 34.4387C11.1892 34.6515 11.3213 34.7578 11.5857 34.6869C11.8401 34.6187 12.1177 34.3953 12.2025 34.1906ZM24.2648 34.3263C23.8721 33.9455 22.6548 33.934 22.2333 34.3071C22.084 34.4392 22.16 34.4556 22.4024 34.3434C22.6447 34.2312 22.843 34.2586 22.843 34.4043C22.843 34.55 23.2425 34.6692 23.7307 34.6692C24.3849 34.6692 24.5254 34.579 24.2648 34.3263ZM26.9609 33.2688C26.8484 33.0425 26.7649 33.1097 26.748 33.4401C26.7327 33.7391 26.816 33.9066 26.9331 33.8124C27.0502 33.7181 27.0628 33.4735 26.9609 33.2688ZM13.1687 33.3462C13.0591 33.2035 13.1687 33.0221 13.4122 32.9431C13.796 32.8186 12.8831 32.6417 12.2169 32.7114C12.0914 32.7245 12.0656 32.4988 12.1595 32.2098C12.2535 31.9207 12.1309 31.585 11.8872 31.4638C11.5752 31.3086 11.5107 31.3831 11.6692 31.7155C11.8162 32.0236 11.7147 32.1874 11.3767 32.1874C11.092 32.1874 10.859 32.3789 10.859 32.6129C10.859 32.8492 11.1723 33.0383 11.564 33.0383C11.9517 33.0383 12.2689 33.1659 12.2689 33.3219C12.2689 33.4779 12.5162 33.6056 12.8184 33.6056C13.1206 33.6056 13.2782 33.4888 13.1687 33.3462ZM25.1496 30.0941C24.7784 27.8429 24.349 27.8267 24.2519 30.0602C24.1707 31.9294 24.1651 31.9132 24.8201 31.7109C25.2844 31.5675 25.3441 31.2744 25.1496 30.0941ZM25.8962 30.1312C25.7985 29.9362 25.7185 30.0957 25.7185 30.4857C25.7185 30.8757 25.7985 31.0352 25.8962 30.8402C25.994 30.6452 25.994 30.3261 25.8962 30.1312ZM29.3193 21.9326C29.2464 21.8302 28.843 21.8188 28.4228 21.9072C27.7843 22.0416 27.7009 21.979 27.9153 21.5261C28.1157 21.1028 28.0784 21.0588 27.7451 21.3249C27.4115 21.5913 27.5031 21.8204 28.1648 22.3743C28.911 22.9989 29.0374 23.0257 29.2315 22.6008C29.3527 22.3356 29.3922 22.0349 29.3193 21.9326ZM19.3183 22.3856C19.3183 22.1424 19.1597 22.0222 18.9658 22.1187C18.7719 22.2151 18.6133 22.4141 18.6133 22.5608C18.6133 22.7076 18.7719 22.8277 18.9658 22.8277C19.1597 22.8277 19.3183 22.6287 19.3183 22.3856ZM20.4808 21.9861C20.2507 21.2781 19.3183 20.5993 19.3183 21.1398C19.3183 21.4493 20.2969 22.5441 20.5736 22.5441C20.6223 22.5441 20.5806 22.293 20.4808 21.9861ZM9.45409 21.4122C9.12824 21.2501 9.13494 21.0687 9.48338 20.6198C9.85207 20.1447 9.85009 19.955 9.4727 19.5891C9.2183 19.3424 8.84639 19.1406 8.64622 19.1406C8.44606 19.1406 8.54513 19.3743 8.86639 19.66C9.5038 20.2267 9.32072 20.6102 8.52932 20.3658C8.16401 20.253 8.09793 20.3528 8.28165 20.7399C8.6321 21.4782 9.21736 21.9444 9.5747 21.7699C9.74079 21.6887 9.68652 21.5278 9.45409 21.4122ZM16.8507 20.7881C16.8507 20.4258 16.2234 20.5211 16.0267 20.9132C15.9173 21.1315 15.8383 21.0835 15.8211 20.7882C15.8058 20.5244 15.9519 20.2297 16.1458 20.1333C16.3396 20.0369 16.4982 19.8105 16.4982 19.6303C16.4982 19.4354 16.2693 19.4869 15.933 19.7575C15.5167 20.0925 15.4351 20.4593 15.6235 21.1495C15.8631 22.0272 15.9101 22.0527 16.365 21.5521C16.6321 21.2581 16.8507 20.9143 16.8507 20.7881ZM21.4329 21.1092C21.4329 20.9624 21.2742 20.8423 21.0804 20.8423C20.8865 20.8423 20.7279 21.0413 20.7279 21.2845C20.7279 21.5277 20.8865 21.6478 21.0804 21.5514C21.2742 21.455 21.4329 21.256 21.4329 21.1092ZM14.7306 20.4711C14.7334 20.3449 14.5774 20.3205 14.3835 20.4169C14.1897 20.5133 14.0335 20.808 14.0364 21.0718C14.0411 21.4851 14.0891 21.4926 14.3835 21.126C14.5714 20.892 14.7276 20.5973 14.7306 20.4711ZM22.6376 20.4542C22.2129 19.3199 21.748 19.2397 21.8381 20.3162C21.8988 21.042 22.0641 21.3058 22.3942 21.2038C22.6911 21.1121 22.7807 20.8364 22.6376 20.4542ZM30.2549 20.5587C30.6738 19.9101 30.6628 19.8828 30.1264 20.2389C29.8038 20.453 29.54 20.8252 29.54 21.0661C29.54 21.5811 29.6408 21.5095 30.2549 20.5587ZM10.859 20.5587C10.859 20.2467 10.7004 19.9914 10.5066 19.9914C10.3127 19.9914 10.1541 20.2467 10.1541 20.5587C10.1541 20.8707 10.3127 21.126 10.5066 21.126C10.7004 21.126 10.859 20.8707 10.859 20.5587ZM13.6788 20.542C13.6788 20.3952 13.5202 20.2751 13.3263 20.2751C13.1325 20.2751 12.9739 20.4741 12.9739 20.7173C12.9739 20.9605 13.1325 21.0806 13.3263 20.9841C13.5202 20.8877 13.6788 20.6887 13.6788 20.542ZM19.2303 19.7775C19.4726 19.7132 19.6708 19.8626 19.6708 20.1096C19.6708 20.3566 19.9088 20.5587 20.1995 20.5587C20.4903 20.5587 20.7283 20.4356 20.7283 20.2851C20.7283 19.9661 19.5759 19.4242 18.8976 19.4242C18.2962 19.4242 17.4624 20.4909 17.7604 20.879C17.8929 21.0515 18.1565 20.9075 18.3892 20.5353C18.6094 20.1828 18.9879 19.8418 19.2303 19.7775ZM24.8462 20.5056C24.7337 20.2793 24.6502 20.3465 24.6332 20.6769C24.6179 20.9759 24.7012 21.1434 24.8184 21.0492C24.9355 20.9549 24.948 20.7103 24.8462 20.5056ZM26.3678 20.4465C26.3678 20.2622 26.685 19.6107 27.0727 18.9988C27.4604 18.3868 27.7777 17.7141 27.7777 17.5039C27.7777 17.2937 27.9208 17.1929 28.0958 17.2799C28.4372 17.4497 29.3125 15.743 29.0093 15.499C28.7218 15.2676 27.8184 16.4081 28.0369 16.7266C28.145 16.8843 28.02 16.8538 27.7589 16.6588C27.0248 16.1105 25.9982 16.2061 26.2358 16.8006C26.3996 17.2102 26.3702 17.224 26.0677 16.8797C25.8661 16.6502 25.5971 16.5463 25.4698 16.6487C25.3426 16.751 25.4925 17.1267 25.8031 17.4835C26.1137 17.8403 26.3678 17.9687 26.3678 17.7687C26.3678 17.5688 26.5051 17.4736 26.673 17.557C27.0549 17.747 26.7501 19.1405 26.3267 19.1405C26.1554 19.1405 26.0153 19.3882 26.0153 19.691C26.0153 19.9938 25.8567 20.3204 25.6628 20.4168C25.1075 20.6931 25.252 21.1262 25.8391 20.9449C26.1299 20.8551 26.3678 20.6309 26.3678 20.4465ZM27.7542 19.8496C27.7728 20.0056 27.9981 19.8142 28.2548 19.4242C28.7458 18.6782 28.6649 18.1656 28.1004 18.4463C27.7144 18.6383 26.7127 20.4751 26.7362 20.9479C26.7449 21.1239 26.9699 20.8849 27.2363 20.4169C27.5026 19.9489 27.7357 19.6936 27.7542 19.8496ZM7.48603 20.1235C8.03976 19.4435 8.03246 19.3649 7.35033 18.6671C6.84682 18.152 6.62932 18.0643 6.62932 18.3765C6.62932 18.6223 6.78793 18.9023 6.98179 18.9987C7.60735 19.3099 7.3559 19.7516 6.65514 19.5726C6.04025 19.4155 6.01522 19.4672 6.39078 20.1185C6.6189 20.5142 6.82697 20.8389 6.85312 20.8401C6.87931 20.8412 7.1641 20.5189 7.48603 20.1235ZM24.1135 20.0683C23.7553 19.78 23.4596 20.214 23.7536 20.5968C23.9757 20.8859 24.0587 20.8861 24.1781 20.5979C24.2597 20.4009 24.2307 20.1625 24.1135 20.0683ZM29.5275 19.3186C29.5344 19.1825 29.3021 19.23 29.0113 19.4242C28.7205 19.6184 28.4882 20.0488 28.4951 20.3807C28.5068 20.9491 28.5368 20.943 29.0113 20.2751C29.2883 19.8851 29.5206 19.4546 29.5275 19.3186ZM13.6014 19.4691C13.769 19.0646 13.0995 19.0311 12.794 19.4288C12.6723 19.5874 12.425 19.6436 12.2445 19.5539C12.0641 19.4641 11.9164 19.5251 11.9164 19.6893C11.9164 20.0865 13.4275 19.8891 13.6014 19.4691ZM14.6315 18.7157C14.6122 18.1694 14.4863 17.7224 14.3516 17.7224C13.9522 17.7224 13.6088 18.6963 13.9737 18.7942C14.158 18.8437 14.2214 19.1532 14.1146 19.4821C13.9912 19.8616 14.0566 20.0123 14.2933 19.8946C14.4986 19.7925 14.6507 19.262 14.6315 18.7157ZM25.6628 19.566C25.6628 19.332 25.5092 19.1406 25.3214 19.1406C25.1336 19.1406 25.0713 19.332 25.1829 19.566C25.2945 19.8 25.4481 19.9914 25.5243 19.9914C25.6005 19.9914 25.6628 19.8 25.6628 19.566ZM11.2114 19.4409C11.2114 19.2941 11.0528 19.0952 10.859 18.9988C10.6651 18.9023 10.5065 19.0224 10.5065 19.2656C10.5065 19.5088 10.6651 19.7078 10.859 19.7078C11.0528 19.7078 11.2114 19.5877 11.2114 19.4409ZM18.4847 18.9841C19.4247 18.168 19.5103 17.9745 18.8862 18.077C18.4485 18.1488 17.2034 19.2312 17.2034 19.5398C17.2034 19.8896 17.6799 19.6829 18.4847 18.9841ZM23.1553 19.3533C23.1162 19.1583 23.2087 18.7689 23.3607 18.488C23.5534 18.1318 23.3961 17.7707 22.8408 17.2951C22.4028 16.9199 21.9466 16.6225 21.8269 16.634C20.9556 16.7183 20.7185 16.5723 21.1387 16.2103C21.5003 15.8988 21.7103 15.9485 22.3386 16.4939C23.1557 17.2034 23.548 17.3259 23.548 16.8715C23.548 16.4871 22.0343 15.2921 21.6709 15.3896C21.5109 15.4325 21.481 15.2116 21.6044 14.8987C21.8518 14.2713 20.8407 12.9244 20.1113 12.9096C19.4506 12.8963 19.5803 13.4112 20.3757 13.9592C20.7634 14.2263 21.0806 14.6151 21.0806 14.8231C21.0806 15.0312 20.6891 14.8433 20.2106 14.4056C19.7321 13.9679 19.3356 13.7693 19.3294 13.9643C19.3233 14.1593 19.1302 14.3189 18.9004 14.3189C18.2356 14.3189 16.851 15.502 16.851 16.0701C16.851 16.3549 17.0096 16.5879 17.2034 16.5879C17.3973 16.5879 17.5559 16.4111 17.5559 16.1951C17.5559 15.979 17.9403 15.5996 18.41 15.3519C19.2026 14.934 19.323 14.9412 20.0842 15.4517C20.5353 15.7542 20.7379 16.006 20.5343 16.0112C20.3308 16.0164 19.9739 15.8675 19.7412 15.6803C19.4123 15.4156 19.3183 15.4786 19.3183 15.9639C19.3183 16.3353 19.5369 16.5879 19.8583 16.5879C20.1554 16.5879 20.5258 16.865 20.6815 17.2036C20.869 17.6117 21.0506 17.7073 21.2196 17.4873C21.3599 17.3046 21.6333 17.1551 21.8272 17.1551C22.021 17.1551 22.0816 17.2828 21.9618 17.4388C21.842 17.5948 21.895 17.7224 22.0795 17.7224C22.2641 17.7224 22.515 17.9319 22.6371 18.188C22.8227 18.5772 22.7712 18.5948 22.3223 18.295C21.5331 17.768 21.6016 18.5174 22.4024 19.1708C23.1544 19.7843 23.2461 19.8066 23.1553 19.3533ZM24.6053 19.2824C24.6053 19.0484 24.348 18.8569 24.0335 18.8569C23.5651 18.8569 23.5411 18.9339 23.9004 19.2824C24.1417 19.5164 24.3991 19.7078 24.4723 19.7078C24.5455 19.7078 24.6053 19.5164 24.6053 19.2824ZM31.4937 19.4438C31.3822 19.2986 31.4521 19.0996 31.6491 19.0016C31.8462 18.9036 32.0074 18.6239 32.0074 18.38C32.0074 18.0181 31.9103 18.0015 31.4787 18.2897C30.8742 18.6934 30.763 19.7078 31.3232 19.7078C31.5285 19.7078 31.6052 19.589 31.4937 19.4438ZM16.4985 18.5082C16.4985 18.0323 16.41 17.9957 15.9698 18.2897C15.679 18.4839 15.4411 18.8146 15.4411 19.0246C15.4411 19.2475 15.6612 19.3385 15.9698 19.2432C16.2606 19.1534 16.4985 18.8227 16.4985 18.5082ZM21.4331 18.516C21.4331 18.2178 18.6154 16.0207 18.2329 16.0207C18.0544 16.0207 17.9084 16.2121 17.9084 16.4461C17.9084 16.6801 17.7498 16.8715 17.5559 16.8715C17.362 16.8715 17.2034 17.1906 17.2034 17.5806C17.2034 17.9706 17.362 18.2897 17.5559 18.2897C17.7498 18.2897 17.9084 18.1238 17.9084 17.921C17.9084 17.0383 18.6572 16.9606 19.6892 17.7363C20.7511 18.5345 21.1628 19.2167 20.1909 18.5676C19.5017 18.1074 19.0815 18.4275 19.6506 18.9792C19.9978 19.3158 20.2168 19.3317 20.7582 19.0596C21.1294 18.8731 21.4331 18.6285 21.4331 18.516ZM10.8589 18.0784C10.8589 17.7324 10.7602 17.7189 10.3302 18.0061C10.0394 18.2003 9.80153 18.2584 9.80153 18.1353C9.80153 18.0122 9.71848 17.9783 9.61699 18.06C9.5155 18.1417 9.53402 18.4215 9.65815 18.6818C9.83329 19.049 9.99307 19.0821 10.3714 18.8295C10.6395 18.6504 10.8589 18.3124 10.8589 18.0784ZM30.9139 17.7224C30.9244 17.394 30.8149 17.4165 30.4342 17.8209C30.1629 18.1091 30.037 18.5465 30.1545 18.7929C30.3364 19.1741 30.4079 19.1594 30.6343 18.6944C30.7806 18.3938 30.9064 17.9564 30.9139 17.7224ZM5.82211 18.2897C5.72072 17.9777 5.74188 17.7214 5.86913 17.7202C5.99637 17.7191 6.29628 17.3787 6.53558 16.964C6.85529 16.4099 6.86721 16.1096 6.58053 15.8317C6.28162 15.5419 6.3293 15.4534 6.78443 15.4534C7.14426 15.4534 7.34834 15.2577 7.30213 14.957C7.26016 14.6841 7.34724 14.2357 7.49565 13.9607C7.65195 13.6712 7.58782 13.2885 7.34324 13.0514C7.111 12.8262 7.01654 12.5175 7.13332 12.3655C7.2501 12.2134 7.1667 12 6.94802 11.8913C6.26017 11.5492 5.91422 12.4207 6.46796 13.1007C7.13036 13.9143 7.1238 14.1996 6.45297 13.7516C6.02133 13.4634 5.92426 13.48 5.92426 13.842C5.92426 14.0859 6.08288 14.3643 6.27674 14.4607C6.4706 14.5571 6.62921 14.7718 6.62921 14.9377C6.62921 15.1257 6.42697 15.1042 6.09197 14.8805C5.27117 14.3323 5.04968 14.7774 5.72844 15.611C6.06097 16.0194 6.23243 16.4345 6.10949 16.5334C5.98653 16.6324 5.74457 16.5293 5.57179 16.3043C5.39901 16.0794 5.14424 15.9865 5.00565 16.0981C4.86706 16.2096 5.04163 16.5569 5.39358 16.8698C5.9698 17.3822 5.88863 17.5687 5.13119 17.4724C4.73871 17.4226 4.81099 17.9448 5.22505 18.1508C5.42207 18.2488 5.49202 18.4477 5.38049 18.593C5.26895 18.7382 5.36417 18.857 5.59208 18.857C5.83294 18.857 5.92926 18.6194 5.82211 18.2897ZM8.642 18.0063C8.54066 17.6945 8.60792 17.3647 8.79147 17.2734C8.97501 17.1821 9.02874 16.8629 8.91086 16.564C8.78262 16.2389 8.863 16.0207 9.11096 16.0207C9.37702 16.0207 9.44622 15.7668 9.30424 15.3116C9.1767 14.9027 9.23514 14.6025 9.44227 14.6025C9.96414 14.6025 9.88423 13.4714 9.36086 13.45C9.11854 13.4401 9.29373 13.3117 9.75017 13.1646C10.2815 12.9933 10.5074 12.7447 10.3781 12.4735C10.267 12.2405 10.3187 12.0498 10.4929 12.0498C10.6672 12.0498 10.8605 11.7895 10.9225 11.4714C11.0465 10.8344 11.6402 10.6743 11.8651 11.2172C11.955 11.4343 11.8415 11.4789 11.5581 11.338C11.2153 11.1675 11.1651 11.3097 11.3469 11.9366C11.5215 12.539 11.4895 12.6451 11.2274 12.3335C10.9507 12.0044 10.8684 12.1205 10.8643 12.8466C10.8611 13.3991 10.7139 13.713 10.5064 13.6098C10.3125 13.5134 10.1539 13.626 10.1539 13.86C10.1539 14.094 10.3329 14.3744 10.5516 14.4832C10.8229 14.6181 10.7645 14.7643 10.368 14.9428C10.0482 15.0868 9.89896 15.351 10.0363 15.5298C10.1736 15.7086 10.3195 16.1794 10.3605 16.5759C10.4015 16.9725 10.3588 17.1375 10.2651 16.9425C9.98405 16.3561 9.50057 16.5436 9.70126 17.1612C10.0293 18.1706 10.7456 17.2695 10.9631 15.5737C11.0744 14.706 11.3538 13.8134 11.584 13.5902C11.8142 13.367 11.9119 13.1844 11.8012 13.1844C11.6904 13.1844 11.8296 12.7418 12.1105 12.2008C12.891 10.6976 12.7729 10.1036 11.6519 9.8943C11.1188 9.79477 10.3126 9.52716 9.86027 9.29964C9.12025 8.92737 8.99008 8.93785 8.56028 9.40429C8.10027 9.90348 8.0634 9.90169 7.56095 9.35581C7.27403 9.04408 6.91995 8.88501 6.77409 9.00238C6.62824 9.11974 6.88084 9.53435 7.33544 9.92372C8.14599 10.618 7.88269 10.9596 7.05216 10.2913C6.72318 10.0266 6.62919 10.0819 6.62919 10.5402C6.62919 10.8643 6.87069 11.2907 7.16586 11.4879C7.47568 11.6948 7.61463 12.0691 7.49459 12.3735C7.24252 13.0125 7.88075 13.078 8.31239 12.4573C8.58739 12.0619 8.67505 12.0678 9.12297 12.5118C9.3992 12.7856 9.45902 12.9297 9.2559 12.832C9.05279 12.7344 8.66255 12.7659 8.38875 12.9021C7.97421 13.1083 8.0065 13.2556 8.58181 13.7824C9.17651 14.3269 9.18838 14.3903 8.6672 14.2375C7.86131 14.0012 7.42854 14.6055 8.16585 14.9375C9.01661 15.3207 8.87982 15.8099 7.98578 15.5815C7.425 15.4383 7.27851 15.4887 7.42327 15.7751C8.12289 17.1593 8.12328 17.1633 7.54965 16.9862C6.79881 16.7543 6.82564 17.3012 7.59852 17.9824C8.41241 18.6997 8.87075 18.7103 8.642 18.0063ZM9.27525 11.4857C9.15176 11.3249 9.29326 11.2774 9.60692 11.3742C10.2175 11.5628 10.3293 11.7661 9.82226 11.7661C9.63985 11.7661 9.39368 11.6399 9.27525 11.4857ZM8.30532 10.7734C8.39796 10.3834 8.53458 10.0643 8.60891 10.0643C8.68324 10.0643 8.74406 10.3834 8.74406 10.7734C8.74406 11.1634 8.60744 11.4825 8.44046 11.4825C8.27349 11.4825 8.21267 11.1634 8.30532 10.7734ZM9.59952 10.4958C9.00317 10.1328 8.99302 10.0813 9.51633 10.0733C9.84414 10.0684 10.2169 10.2004 10.3447 10.3668C10.7286 10.8667 10.3239 10.9368 9.59952 10.4958ZM11.9163 18.2897C11.9163 18.1337 11.7577 18.006 11.5638 18.006C11.37 18.006 11.2114 18.1337 11.2114 18.2897C11.2114 18.4457 11.37 18.5733 11.5638 18.5733C11.7577 18.5733 11.9163 18.4457 11.9163 18.2897ZM13.2454 18.0592C13.4569 17.5487 12.7283 17.656 12.4825 18.1716C12.3508 18.4478 12.4295 18.5775 12.6871 18.5084C12.9174 18.4466 13.1687 18.2445 13.2454 18.0592ZM24.5376 17.7408C24.3033 17.4389 23.977 17.2588 23.8125 17.3406C23.4765 17.5077 24.1675 18.2897 24.6513 18.2897C24.823 18.2897 24.7719 18.0427 24.5376 17.7408ZM16.1456 17.2974C16.6955 16.4706 16.4004 16.0648 15.6257 16.5822C15.0601 16.9599 14.8806 18.006 15.3813 18.006C15.5425 18.006 15.8863 17.6872 16.1456 17.2974ZM30.2448 16.6858C30.2448 16.1224 29.619 16.2225 29.1998 16.8529C28.5903 17.7693 28.7656 18.1444 29.5399 17.5806C29.9276 17.2982 30.2448 16.8956 30.2448 16.6858ZM12.9737 16.6962C12.9737 16.4622 12.8151 16.3497 12.6212 16.4461C12.4273 16.5425 12.2687 16.8128 12.2687 17.0468C12.2687 17.2808 12.4273 17.3934 12.6212 17.2969C12.8151 17.2005 12.9737 16.9302 12.9737 16.6962ZM32.7121 16.3766C32.7121 16.013 32.627 16.0077 32.1257 16.3404C31.5956 16.6923 31.5786 16.6702 31.9494 16.1102C32.4532 15.3494 32.4628 15.1698 31.9996 15.1698C31.8016 15.1698 31.461 15.4851 31.2428 15.8704C30.9389 16.4072 30.9516 16.6734 31.2972 17.0084C31.8159 17.5114 32.7121 17.1112 32.7121 16.3766ZM14.736 16.093C14.736 15.747 14.6373 15.7335 14.2073 16.0206C13.9165 16.2148 13.6786 16.5652 13.6786 16.7992C13.6786 17.1452 13.7773 17.1587 14.2073 16.8715C14.4981 16.6773 14.736 16.327 14.736 16.093ZM24.9577 16.4461C24.9577 16.2121 24.7198 16.0206 24.429 16.0206C23.5117 16.0206 23.809 16.5796 24.8696 16.8492C24.9181 16.8615 24.9577 16.6801 24.9577 16.4461ZM25.8756 15.5302C25.5173 15.2419 25.2217 15.6759 25.5157 16.0587C25.7377 16.3478 25.8208 16.3481 25.9402 16.0598C26.0218 15.8628 25.9927 15.6244 25.8756 15.5302ZM28.1052 14.9403C28.1188 14.7361 27.9713 14.6479 27.7775 14.7443C27.5836 14.8407 27.4362 15.2631 27.4498 15.6828C27.4719 16.3644 27.507 16.3853 27.7775 15.8788C27.9441 15.5668 28.0916 15.1445 28.1052 14.9403ZM12.9736 15.2781C12.9736 15.0441 12.8149 14.9315 12.6211 15.028C12.4272 15.1244 12.2686 15.3947 12.2686 15.6287C12.2686 15.8627 12.4272 15.9752 12.6211 15.8788C12.8149 15.7824 12.9736 15.5121 12.9736 15.2781ZM16.1221 14.7585C15.6403 14.3636 14.9469 15.0312 15.2275 15.6197C15.4429 16.0714 15.4972 16.0675 15.9555 15.5678C16.2628 15.2329 16.326 14.9257 16.1221 14.7585ZM23.7376 15.7191C23.9766 15.408 22.964 14.3189 22.4356 14.3189C22.2718 14.3189 22.1378 14.5103 22.1378 14.7443C22.1378 14.9783 22.2964 15.1698 22.4902 15.1698C22.6841 15.1698 22.8427 15.3612 22.8427 15.5952C22.8427 16.086 23.3969 16.1627 23.7376 15.7191ZM27.0724 15.3967C27.0724 14.9385 26.9681 14.8565 26.6801 15.0883C26.4644 15.2619 26.3944 15.5427 26.5247 15.7123C26.8893 16.187 27.0724 16.0815 27.0724 15.3967ZM31.4561 14.5737C31.3155 14.3906 30.9824 14.4637 30.562 14.7698C29.9669 15.2032 29.8921 15.2071 29.8921 14.805C29.8921 14.556 30.0507 14.2735 30.2445 14.1771C30.4384 14.0807 30.597 13.867 30.597 13.7023C30.597 13.536 30.2049 13.6095 29.7158 13.8674C29.2281 14.1245 28.8347 14.1984 28.8347 14.0329C28.8347 13.8684 29.0726 13.6603 29.3634 13.5706C29.6542 13.4808 29.8921 13.2327 29.8921 13.0192C29.8921 12.7175 29.6764 12.6931 28.9228 12.9094C28.0399 13.1629 28.0116 13.1513 28.6056 12.7795C29.3668 12.3029 29.0891 11.7212 28.2065 11.9436C27.6452 12.085 27.646 12.0663 28.2178 11.6872C28.8612 11.2606 29.0513 10.6317 28.5368 10.6317C28.373 10.6317 27.9545 10.8846 27.607 11.1936C27.1582 11.5927 27.0795 11.8599 27.3354 12.1154C27.5336 12.3133 27.7998 12.8673 27.9269 13.3463C28.054 13.8254 28.6228 14.6269 29.1909 15.1274L30.2238 16.0374L30.9519 15.4514C31.3525 15.1291 31.5793 14.7342 31.4561 14.5737ZM24.5963 14.7656C24.1291 14.3897 23.8385 14.7106 24.1171 15.2948C24.3006 15.6796 24.4125 15.704 24.6394 15.4086C24.7982 15.2019 24.7788 14.9125 24.5963 14.7656ZM14.8451 14.0098C14.5731 13.7909 14.307 13.8853 13.9101 14.3412C13.1546 15.2091 13.5391 15.5799 14.4704 14.8817C15.0105 14.4769 15.1171 14.2287 14.8451 14.0098ZM25.7386 14.2669C25.2013 13.8345 24.874 14.0979 25.1721 14.7228C25.336 15.0665 25.513 15.1197 25.7795 14.9052C26.0461 14.6907 26.0342 14.5047 25.7386 14.2669ZM18.1009 14.1356C19.0839 13.2822 19.1937 12.9007 18.4565 12.9007C17.8941 12.9007 16.8504 13.9554 16.8504 14.5238C16.8504 15.0604 17.1391 14.9708 18.1009 14.1356ZM27.6962 14.0884C27.9077 13.5779 27.1792 13.6852 26.9333 14.2008C26.8016 14.477 26.8804 14.6067 27.1379 14.5376C27.3683 14.4758 27.6195 14.2737 27.6962 14.0884ZM13.1638 14.0164C13.2916 13.85 13.2793 13.6266 13.1364 13.52C12.9935 13.4134 12.8087 13.4785 12.7258 13.6648C12.6429 13.851 12.3474 13.9331 12.0692 13.8472C11.7909 13.7612 11.5632 13.8322 11.5632 14.0049C11.5632 14.4067 12.8569 14.416 13.1638 14.0164ZM16.6206 13.5815C16.9789 13.1857 17.1781 12.7864 17.0633 12.694C16.7696 12.4576 15.4404 13.476 15.4404 13.9374C15.4404 14.5178 15.8977 14.38 16.6206 13.5815ZM23.5474 14.0679C23.5474 13.7099 21.7694 12.8187 21.4953 13.0393C21.3697 13.1404 21.661 13.4668 22.1428 13.7647C23.1029 14.3583 23.5474 14.4542 23.5474 14.0679ZM25.1821 13.2448C24.5652 12.7469 23.5831 13.0911 23.7914 13.7323C23.9316 14.1637 24.0885 14.194 24.7959 13.9267C25.4784 13.6687 25.5502 13.542 25.1821 13.2448ZM27.0178 13.34C27.0918 13.0328 26.9899 12.9081 26.7588 13.023C26.499 13.1523 26.451 12.9148 26.6081 12.2766C26.8265 11.3897 26.8032 11.3623 26.1622 11.7525C25.6309 12.076 25.5804 12.0791 25.9265 11.7667C26.1689 11.548 26.3671 11.0599 26.3671 10.6821C26.3671 10.0744 26.2994 10.04 25.7807 10.3842C25.2506 10.7361 25.2337 10.714 25.6045 10.154C25.8301 9.81325 26.0146 9.207 26.0146 8.80674C26.0146 8.40648 26.1336 8.09282 26.279 8.1097C26.8793 8.17936 28.1299 7.70638 28.1349 7.40778C28.138 7.21268 28.2579 7.2357 28.4396 7.46637C28.6741 7.76401 28.9594 7.68287 29.756 7.09203C31.7315 5.62675 31.8933 5.52634 32.2798 5.52634C33.0715 5.52634 33.0526 4.97829 32.2364 4.26961C31.7748 3.86884 31.0698 3.54094 30.6697 3.54094C29.9522 3.54094 28.8344 4.22029 28.8344 4.6564C28.8344 4.77962 28.4761 4.8253 28.038 4.75793C27.5042 4.67581 26.9611 4.87577 26.3905 5.36453C25.9223 5.76552 25.7107 6.09363 25.9202 6.09363C26.1297 6.09363 26.2182 6.34889 26.1168 6.66089C26.0096 6.99061 26.106 7.22814 26.3468 7.22814C26.5747 7.22814 26.6616 7.35786 26.5398 7.5164C26.418 7.67494 26.2024 7.74694 26.0605 7.67641C25.5827 7.43879 24.8722 10.0348 25.1156 11.1285C25.6632 13.5884 26.6747 14.7644 27.0178 13.34ZM27.358 6.74701C27.806 6.67548 28.2588 6.43612 28.3642 6.21515C28.4696 5.99415 28.6909 5.88049 28.856 5.9626C29.4903 6.27805 28.7645 6.82625 27.6797 6.85107C26.9301 6.86823 26.8206 6.83282 27.358 6.74701ZM26.8958 5.81007C27.0156 5.65407 27.3819 5.52839 27.7097 5.53079C28.2233 5.53453 28.2326 5.57313 27.777 5.81007C27.0867 6.16903 26.6201 6.16903 26.8958 5.81007ZM31.7564 13.4681C31.655 13.1561 31.4134 12.9008 31.2196 12.9008C31.0257 12.9008 30.9501 12.6455 31.0515 12.3335C31.1713 11.9648 31.0623 11.7663 30.7401 11.7663C30.0761 11.7663 30.1039 12.8752 30.7731 13.0819C31.0639 13.1717 31.3018 13.4229 31.3018 13.6402C31.3018 13.8575 31.4456 14.0353 31.6213 14.0353C31.797 14.0353 31.8578 13.78 31.7564 13.4681ZM15.4405 12.5768C15.4405 12.4096 15.1896 12.3503 14.8829 12.445C14.5763 12.5397 14.2591 12.6172 14.178 12.6172C14.0969 12.6172 14.0306 12.8131 14.0306 13.0526C14.0306 13.4001 14.1729 13.4267 14.7355 13.1844C15.1233 13.0174 15.4405 12.744 15.4405 12.5768ZM23.5473 12.6004C23.5473 12.4536 23.3887 12.3335 23.1949 12.3335C23.001 12.3335 22.8424 12.5325 22.8424 12.7757C22.8424 13.0189 23.001 13.139 23.1949 13.0426C23.3887 12.9462 23.5473 12.7472 23.5473 12.6004ZM14.0306 11.8566C14.0306 11.4961 13.9325 11.4787 13.5058 11.7637C13.2171 11.9565 13.0695 12.2294 13.1776 12.3703C13.4557 12.7324 14.0306 12.3862 14.0306 11.8566ZM24.7323 12.1917C24.6208 11.9578 24.4671 11.7663 24.3909 11.7663C24.3147 11.7663 24.2524 11.9578 24.2524 12.1917C24.2524 12.4257 24.406 12.6172 24.5938 12.6172C24.7816 12.6172 24.8439 12.4257 24.7323 12.1917ZM34.1215 12.3538C34.1215 12.0127 33.1103 11.199 32.6864 11.199C32.25 11.199 32.2665 10.4277 32.7076 10.2084C32.8995 10.1129 32.9707 10.214 32.8661 10.4333C32.6532 10.8797 34.3008 11.8859 34.821 11.6272C35.4405 11.3191 34.7782 10.686 33.9161 10.7622C33.4426 10.804 33.076 10.696 33.1014 10.5223C33.2396 9.5774 33.0354 9.27281 32.3592 9.4151C31.3644 9.62444 31.416 11.0894 32.4473 11.9193C33.2757 12.5858 34.1215 12.8053 34.1215 12.3538ZM17.225 11.6954L17.2474 11.0572L17.5662 11.6954C17.9483 12.4604 18.9415 12.5503 18.8726 11.8136C18.8458 11.5276 18.6574 11.2735 18.4539 11.249C18.2504 11.2244 17.7639 11.1652 17.3728 11.1174C16.246 10.9795 15.8063 10.6524 16.0406 10.1263C16.16 9.85835 16.128 9.73369 15.9695 9.84934C15.8111 9.96498 15.4554 9.90861 15.179 9.72407C14.6641 9.3802 13.218 9.17454 13.415 9.47317C13.4751 9.56442 13.743 9.99008 14.0102 10.4191C14.5169 11.2324 15.0836 11.4549 15.0938 10.8445C15.097 10.6495 15.4299 10.9048 15.8334 11.4118C16.6909 12.4893 17.1937 12.5918 17.225 11.6954ZM22.0493 11.965C22.2917 11.8175 22.4899 11.4527 22.4899 11.1543C22.4899 10.7059 22.3717 10.6627 21.8081 10.9054C21.4332 11.0669 20.8172 11.199 20.4393 11.199C20.0478 11.199 19.6727 11.4441 19.5672 11.7688C19.4083 12.2576 19.5403 12.3311 20.4954 12.2859C21.1077 12.2569 21.807 12.1125 22.0493 11.965ZM30.7434 10.822C31.0504 10.7272 31.3016 10.3619 31.3016 10.0102C31.3016 9.41447 31.2281 9.43566 30.2235 10.3207C29.5247 10.9363 29.2271 11.4326 29.3776 11.7311C29.5754 12.1235 29.6525 12.103 29.8975 11.593C30.0558 11.2637 30.4364 10.9167 30.7434 10.822ZM28.4818 9.78089C28.4818 9.35162 27.5684 9.44139 27.0757 9.9191C26.8364 10.1511 26.7341 10.5369 26.8483 10.7764C27.0254 11.1477 27.1611 11.1273 27.7689 10.6382C28.161 10.3227 28.4818 9.93689 28.4818 9.78089ZM35.9987 10.2573C36.2299 10.3689 36.199 10.2452 35.9288 9.97714C35.3696 9.42234 35.8653 9.32542 36.57 9.85179C36.9498 10.1354 36.9949 10.1354 36.7959 9.85179C36.6591 9.6568 36.7152 9.49726 36.9205 9.49726C37.4807 9.49726 37.3695 8.4828 36.765 8.07911C36.4742 7.88491 36.2363 7.50201 36.2363 7.22822C36.2363 6.6442 35.7733 6.32214 34.222 5.82735C33.2605 5.52064 33.007 5.53183 32.5478 5.90137C31.7069 6.57802 31.8736 7.22821 32.8878 7.22821C33.3725 7.22821 33.769 7.3439 33.769 7.4853C33.769 7.62669 33.4608 7.67752 33.0842 7.59826C32.7076 7.519 31.9158 7.6483 31.3247 7.88558C30.3081 8.29366 30.2686 8.28889 30.5956 7.79732C30.7857 7.51151 31.1413 7.2202 31.3858 7.14994C31.6304 7.0797 31.7396 6.94229 31.6285 6.84456C31.329 6.581 29.5453 7.316 29.5421 7.70429C29.5407 7.88815 29.8029 8.25065 30.1251 8.50986C30.671 8.94917 30.6531 8.97462 29.8607 8.88465C29.1786 8.80721 29.0107 8.91424 29.0107 9.42632C29.0107 9.99401 29.5112 10.383 29.5581 9.85177C29.5685 9.73477 29.965 9.47542 30.4393 9.27546C30.9137 9.07548 31.3017 8.72448 31.3017 8.49548C31.3017 8.26647 31.4603 8.07908 31.6542 8.07908C31.8481 8.07908 32.0067 8.27053 32.0067 8.50453C32.0067 8.91324 32.5667 9.04907 33.8349 8.94784C34.1619 8.92175 34.6139 9.17771 34.8394 9.51666C35.0818 9.8811 35.1008 10.0591 34.886 9.95228C34.6862 9.85291 34.4079 9.92105 34.2676 10.1037C34.1078 10.3118 34.1654 10.3598 34.422 10.2322C34.6583 10.1147 34.9378 10.2461 35.0829 10.5429C35.3194 11.0267 35.3418 11.0276 35.4595 10.5574C35.5334 10.2626 35.7546 10.1395 35.9987 10.2573ZM35.8228 9.30592C35.4984 9.23688 34.9804 8.87024 34.6717 8.49117C34.2092 7.92315 34.1884 7.7016 34.5533 7.23146C34.7968 6.91768 35.1958 6.66097 35.4399 6.66097C35.9572 6.66097 36.0432 7.68274 35.5468 7.92964C35.0777 8.16295 35.5002 8.93001 36.0978 8.93001C36.3678 8.93001 36.5888 9.05764 36.5888 9.21363C36.5888 9.36963 36.5491 9.48246 36.5007 9.46436C36.4522 9.44627 36.1472 9.37496 35.8228 9.30592ZM35.5314 7.45786C35.5314 7.08506 34.7303 7.3185 34.5547 7.74247C34.4688 7.94974 34.63 8.01313 34.9733 7.90713C35.2802 7.81234 35.5314 7.61017 35.5314 7.45786ZM11.2108 9.08787C11.2108 8.69317 9.9322 7.79545 9.37004 7.79545C8.79259 7.79545 9.1318 8.59725 9.88906 9.02233C10.894 9.58641 11.2108 9.60211 11.2108 9.08787ZM12.1232 8.43507C11.7381 8.12524 11.4741 8.61797 11.7505 9.13047C12.0127 9.61644 12.0317 9.61599 12.1777 9.12052C12.2618 8.83533 12.2372 8.52689 12.1232 8.43507ZM28.8346 8.61551C28.8346 8.14795 28.0241 8.02871 27.2148 8.3772C25.8446 8.96729 26.1174 9.50585 27.6009 9.13948C28.2794 8.97191 28.8346 8.73614 28.8346 8.61551ZM8.01793 7.91715C7.66211 7.57215 7.68941 7.53063 8.17378 7.6802C8.63912 7.82388 8.75839 7.69273 8.74821 7.04852C8.74112 6.60135 8.82689 5.78878 8.93878 5.24279C9.07235 4.59099 8.9649 4.05794 8.62587 3.69055C8.16681 3.19307 8.01158 3.17319 7.22652 3.51129C6.74089 3.72043 6.14528 3.79296 5.90299 3.67246C5.61805 3.53075 5.55128 3.56902 5.71395 3.78082C5.86298 3.97485 5.74155 4.10827 5.41594 4.10827C4.47579 4.10827 4.81289 4.92231 5.94877 5.39498C6.83805 5.76503 6.95511 5.91907 6.60507 6.25846C6.26651 6.58673 6.29758 6.77699 6.75637 7.18494C7.39501 7.75279 7.53202 8.21116 6.98125 7.93726C6.78739 7.84085 6.62878 7.88853 6.62878 8.04322C6.62878 8.19791 6.946 8.4055 7.33372 8.50452C7.72144 8.60354 8.05706 8.83552 8.07955 9.01999C8.10204 9.20447 8.19444 9.12592 8.28489 8.84543C8.37534 8.56494 8.25523 8.14723 8.01793 7.91715ZM7.05546 6.54774C7.30543 6.32948 7.56549 6.19335 7.63338 6.24525C7.84244 6.40506 7.31258 6.94459 6.94655 6.94459C6.75649 6.94459 6.8055 6.76599 7.05546 6.54774ZM12.0362 7.98701C12.1638 8.08966 12.2657 7.73756 12.2628 7.20457C12.2592 6.56161 12.1565 6.36358 11.9576 6.61612C11.7388 6.8939 11.6104 6.79744 11.4826 6.25912C11.3404 5.66069 11.398 5.58203 11.7877 5.84232C12.7874 6.5099 12.2185 5.6177 11.1745 4.88054C10.1173 4.13403 9.37253 3.88222 9.51976 4.32103C9.55901 4.43802 9.46756 5.03367 9.31652 5.64469C9.07084 6.63861 9.14687 6.83662 10.0382 7.52433C10.66 8.00406 11.1792 8.20045 11.4194 8.04672C11.6311 7.91124 11.9087 7.88437 12.0362 7.98701ZM9.97711 6.3773C9.29747 6.14229 9.29986 6.13283 10.0444 6.11361C10.4691 6.10264 10.9147 6.2213 11.0345 6.3773C11.2922 6.71278 10.9473 6.71278 9.97711 6.3773ZM18.1876 7.35061C18.6283 7.10218 18.8713 6.75779 18.7379 6.57063C18.6065 6.3863 18.8916 6.52267 19.3715 6.87365C20.3841 7.61418 22.4014 7.74355 22.714 7.08801C22.8252 6.85491 23.0581 6.73481 23.2317 6.82112C23.4052 6.90743 23.5472 6.84287 23.5472 6.67767C23.5472 6.27443 23.089 6.29832 22.5086 6.73184C22.21 6.95486 22.1187 6.96458 22.2625 6.75805C22.3883 6.57746 22.3423 6.13074 22.1604 5.76535C21.9784 5.39995 21.8195 5.24688 21.8072 5.42519C21.7949 5.6035 21.5245 5.82979 21.2063 5.92804C20.719 6.07852 20.6991 6.0375 21.0803 5.6679C21.7886 4.98115 21.224 4.84325 20.4044 5.50281C20.0005 5.82779 19.4625 6.0937 19.2087 6.0937C18.6217 6.0937 17.7012 5.51067 17.4174 4.95918C17.297 4.72519 17.2888 4.90702 17.399 5.36324C17.5683 6.06357 17.5202 6.13975 17.0898 5.85235C16.6841 5.5814 16.5358 5.60496 16.3627 5.96784C16.0683 6.58524 16.0853 6.66094 16.5186 6.66094C16.7239 6.66094 16.8188 6.56521 16.7295 6.44822C16.6402 6.33122 17.0009 6.22299 17.5311 6.20769C18.1267 6.19051 18.4951 6.32757 18.4951 6.56634C18.4951 6.81045 18.2597 6.89268 17.856 6.78957C17.5045 6.6998 16.9362 6.75789 16.593 6.91865C16.2124 7.09695 16.149 7.21431 16.4304 7.21958C16.6842 7.22432 16.7938 7.35584 16.674 7.51183C16.3373 7.95027 17.3069 7.84696 18.1876 7.35061ZM34.8317 38.1669C34.8288 37.3219 34.8981 36.6884 34.9859 36.759C35.3082 37.0184 35.4194 38.9641 35.1327 39.328C34.9522 39.5571 34.835 39.1049 34.8317 38.1669ZM11.5925 38.2571C11.94 38.1716 12.1506 37.7982 12.1506 37.2672C12.1506 36.7976 12.4454 36.1976 12.8068 35.9316C13.4249 35.4768 13.4369 35.4769 13.0118 35.9325C12.7635 36.1985 12.5343 36.8351 12.5024 37.3472C12.4584 38.0514 12.2726 38.2924 11.7393 38.3363C11.3076 38.3719 11.2507 38.3411 11.5925 38.2571ZM8.58815 37.4007C8.46078 36.9923 8.43586 36.5944 8.53279 36.5164C8.62971 36.4384 8.81096 36.7014 8.93556 37.1008C9.09286 37.6052 9.44816 37.8624 10.0983 37.9427C10.9586 38.0489 10.9448 38.0617 9.9271 38.1007C9.00651 38.1361 8.78071 38.018 8.58815 37.4007ZM6.79136 33.9061C6.90381 33.7597 6.76834 33.5363 6.49033 33.4098C5.74524 33.0705 6.17076 31.6196 7.01538 31.6196C7.40363 31.6196 7.75296 31.3585 7.86907 30.9815C8.18298 29.9623 8.23719 26.2287 7.96276 24.5289C7.805 23.5519 7.8248 23.2339 8.01575 23.678C8.18342 24.068 8.33642 24.8274 8.35574 25.3656C8.39706 26.5164 8.96517 26.237 9.19213 24.9544C9.31332 24.2694 9.35297 24.3358 9.39549 25.2951C9.42453 25.9504 9.21038 27.2217 8.91958 28.12C8.62879 29.0184 8.39087 30.1882 8.39087 30.7196C8.39087 31.5551 8.48895 31.6652 9.11594 31.5332C9.57662 31.4363 9.79163 31.5018 9.70559 31.7129C9.6311 31.8956 9.18587 32.0825 8.71616 32.1284C7.91799 32.2062 6.63958 33.605 7.36662 33.605C7.54224 33.605 7.68593 33.7327 7.68593 33.8887C7.68593 34.0447 7.43865 34.1723 7.13643 34.1723C6.8342 34.1723 6.67891 34.0525 6.79136 33.9061ZM7.43941 32.4588C7.56116 32.0841 7.48072 31.9105 7.2176 31.9802C6.99053 32.0403 6.75178 32.3808 6.68699 32.7369C6.54427 33.5216 7.16906 33.2906 7.43941 32.4588ZM32.0162 32.9055C31.7803 32.6768 31.6491 32.3402 31.7248 32.1577C31.8004 31.9751 32.1362 32.1623 32.4712 32.5736C33.111 33.3594 32.7534 33.6202 32.0162 32.9055ZM23.067 32.3287C23.1786 32.0947 23.3152 31.9033 23.3707 31.9033C23.4261 31.9033 23.5628 32.0947 23.6744 32.3287C23.7967 32.5853 23.6761 32.7542 23.3707 32.7542C23.0652 32.7542 22.9446 32.5853 23.067 32.3287ZM22.137 31.92C22.137 31.5988 22.2956 31.336 22.4895 31.336C22.6833 31.336 22.8419 31.5199 22.8419 31.7447C22.8419 31.9695 22.6833 32.2323 22.4895 32.3287C22.2956 32.4251 22.137 32.2412 22.137 31.92ZM21.0796 31.7447C21.0796 31.5015 21.2382 31.3814 21.4321 31.4778C21.6259 31.5742 21.7845 31.7732 21.7845 31.92C21.7845 32.0668 21.6259 32.1869 21.4321 32.1869C21.2382 32.1869 21.0796 31.9879 21.0796 31.7447ZM15.0876 31.0691C15.0876 30.3843 15.2836 30.3152 15.5632 30.9015C15.6724 31.1305 15.61 31.3933 15.4246 31.4855C15.2392 31.5777 15.0876 31.3903 15.0876 31.0691ZM22.1648 30.3196C22.1818 29.9892 22.2653 29.922 22.3778 30.1483C22.4796 30.353 22.4671 30.5977 22.3499 30.6919C22.2328 30.7862 22.1495 30.6186 22.1648 30.3196ZM21.6634 28.9251C21.7815 28.3011 21.9363 27.7374 22.0075 27.6724C22.2745 27.4287 22.0746 28.9479 21.7681 29.4924C21.5455 29.8877 21.5138 29.7158 21.6634 28.9251ZM23.955 24.5289C23.955 24.1389 24.035 23.9793 24.1328 24.1743C24.2306 24.3693 24.2306 24.6884 24.1328 24.8834C24.035 25.0784 23.955 24.9189 23.955 24.5289ZM4.54861 9.6965C4.10277 9.09909 4.11028 9.09305 4.71721 9.56083C5.06659 9.83011 5.27659 10.1115 5.18385 10.1861C5.09112 10.2607 4.80525 10.0404 4.54861 9.6965ZM2.29279 7.33174C1.96622 7.06896 2.43825 6.37676 2.94402 6.37676C3.73278 6.37676 3.86869 6.89805 3.15956 7.20343C2.7919 7.36177 2.40185 7.4195 2.29279 7.33174ZM14.4383 3.54047C14.4383 3.15048 14.5183 2.99094 14.6161 3.18594C14.7138 3.38093 14.7138 3.70002 14.6161 3.89501C14.5183 4.09001 14.4383 3.93046 14.4383 3.54047ZM20.7271 4.00064C20.7271 3.94174 21.0046 3.71838 21.3439 3.50428C21.903 3.15148 21.9154 3.16151 21.477 3.61136C21.0165 4.08383 20.7271 4.23409 20.7271 4.00064ZM21.6964 2.21043C21.3571 2.13909 21.0795 1.96244 21.0795 1.81788C21.0795 1.41717 21.6458 1.50424 22.137 1.98049C22.3783 2.21448 22.5167 2.39113 22.4445 2.37303C22.3723 2.35494 22.0356 2.28176 21.6964 2.21043ZM18.436 1.55505C18.5558 1.39905 18.7238 1.27142 18.8093 1.27142C18.8948 1.27142 18.9647 1.39905 18.9647 1.55505C18.9647 1.71104 18.7967 1.83867 18.5914 1.83867C18.3861 1.83867 18.3162 1.71104 18.436 1.55505Z" fill="url(#paint0_linear_74_1194)"/>
<defs>
<linearGradient id="paint0_linear_74_1194" x1="36.6692" y1="31.8326" x2="-0.0779513" y2="23.71" gradientUnits="userSpaceOnUse">
<stop stop-color="#2271FF" stop-opacity="0.9"/>
<stop offset="0.439181" stop-color="#883DED" stop-opacity="0.945933"/>
<stop offset="1" stop-color="#FC34DD"/>
</linearGradient>
</defs>
</svg>
