<svg width="50" height="50" viewBox="0 0 50 50" fill="none" xmlns="http://www.w3.org/2000/svg">
<path d="M13.3929 28.5715C13.886 28.5715 14.2857 28.1717 14.2857 27.6786C14.2857 27.1855 13.886 26.7858 13.3929 26.7858C12.8997 26.7858 12.5 27.1855 12.5 27.6786C12.5 28.1717 12.8997 28.5715 13.3929 28.5715Z" fill="url(#paint0_linear_74_1202)"/>
<path d="M21.4286 7.14282C20.0158 7.14282 18.6348 7.56174 17.4602 8.34661C16.2856 9.13148 15.3701 10.247 14.8294 11.5522C14.2888 12.8574 14.1473 14.2936 14.423 15.6792C14.6986 17.0648 15.3789 18.3375 16.3778 19.3364C17.3767 20.3354 18.6495 21.0157 20.0351 21.2913C21.4206 21.5669 22.8568 21.4254 24.162 20.8848C25.4672 20.3442 26.5828 19.4287 27.3676 18.254C28.1525 17.0794 28.5714 15.6984 28.5714 14.2857C28.5693 12.3919 27.8161 10.5764 26.477 9.23727C25.1379 7.89818 23.3223 7.14495 21.4286 7.14282ZM25.1545 15.8035L20.5893 18.6607C20.3187 18.8298 20.0078 18.9233 19.6888 18.9315C19.3699 18.9397 19.0545 18.8623 18.7756 18.7074C18.4967 18.5524 18.2644 18.3256 18.1029 18.0504C17.9414 17.7753 17.8565 17.4619 17.8571 17.1428V11.4375C17.8565 11.1184 17.9414 10.805 18.1029 10.5298C18.2644 10.2547 18.4967 10.0278 18.7756 9.87289C19.0545 9.71794 19.3699 9.64055 19.6888 9.64877C20.0078 9.65698 20.3187 9.7505 20.5893 9.91961L25.1545 12.7768C25.4109 12.9374 25.6223 13.1605 25.7689 13.4252C25.9154 13.6899 25.9923 13.9876 25.9923 14.2901C25.9923 14.5927 25.9154 14.8903 25.7689 15.1551C25.6223 15.4198 25.4109 15.6429 25.1545 15.8035Z" fill="url(#paint1_linear_74_1202)"/>
<path d="M19.6429 17.1437L24.2081 14.2857L19.6429 11.4321V17.1437Z" fill="url(#paint2_linear_74_1202)"/>
<path d="M38.3929 38.1606V39.2856C38.3929 39.7592 38.581 40.2134 38.9159 40.5483C39.2508 40.8832 39.705 41.0714 40.1786 41.0714C40.6522 41.0714 41.1064 40.8832 41.4413 40.5483C41.7762 40.2134 41.9643 39.7592 41.9643 39.2856V38.1606C40.794 38.4702 39.5632 38.4702 38.3929 38.1606Z" fill="url(#paint3_linear_74_1202)"/>
<path d="M40.1786 35.7143V33.9286H44.8125C45.2852 33.115 45.5347 32.191 45.5357 31.25V29.125L43.2143 27.9643C42.843 27.7775 42.4334 27.6797 42.0178 27.6786H38.3393C37.9237 27.6797 37.5141 27.7775 37.1428 27.9643L34.8214 29.125V31.25C34.8206 32.2183 35.0825 33.1686 35.5791 33.9998C36.0757 34.831 36.7885 35.5119 37.6415 35.9701C38.4945 36.4282 39.4559 36.6463 40.4231 36.6013C41.3903 36.5563 42.3272 36.2497 43.1339 35.7143H40.1786ZM41.9643 29.4643H43.75V31.25H41.9643V29.4643ZM38.3928 31.25H36.6071V29.4643H38.3928V31.25Z" fill="url(#paint4_linear_74_1202)"/>
<path d="M0 46.4286C0 47.3758 0.376274 48.2842 1.04605 48.954C1.71582 49.6237 2.62423 50 3.57143 50H29.4643V48.6964C29.4643 48.5357 29.4911 48.375 29.4911 48.2143H3.57143C3.09826 48.2129 2.64488 48.0243 2.3103 47.6897C1.97572 47.3551 1.78713 46.9017 1.78571 46.4286V3.57143C1.78713 3.09826 1.97572 2.64488 2.3103 2.3103C2.64488 1.97572 3.09826 1.78713 3.57143 1.78571H39.2857C39.7589 1.78713 40.2123 1.97572 40.5468 2.3103C40.8814 2.64488 41.07 3.09826 41.0714 3.57143V17.0089C41.6735 17.0644 42.2705 17.1659 42.8571 17.3125V3.57143C42.8571 2.62423 42.4809 1.71582 41.8111 1.04605C41.1413 0.376274 40.2329 0 39.2857 0H3.57143C2.62423 0 1.71582 0.376274 1.04605 1.04605C0.376274 1.71582 0 2.62423 0 3.57143V46.4286Z" fill="url(#paint5_linear_74_1202)"/>
<path d="M33.866 21.3661C32.6274 22.6023 31.7824 24.1773 31.4374 25.8929H33.2678C33.6622 24.3598 34.5552 23.0013 35.8063 22.0313C37.0574 21.0614 38.5955 20.535 40.1785 20.535C41.7616 20.535 43.2997 21.0614 44.5507 22.0313C45.8018 23.0013 46.6948 24.3598 47.0892 25.8929H48.9196C48.5053 23.8791 47.41 22.0696 45.818 20.7686C44.226 19.4677 42.2344 18.7549 40.1785 18.75C39.0055 18.7461 37.8434 18.9754 36.7597 19.4245C35.676 19.8736 34.6924 20.5336 33.866 21.3661Z" fill="url(#paint6_linear_74_1202)"/>
<path d="M39.2857 17.0089V3.57141H3.57141V46.4286H29.7411C30.3287 43.9133 31.889 41.7334 34.0803 40.3661L36.6071 38.7946V37.4286C35.7889 36.952 35.0727 36.3187 34.4997 35.5649C33.9267 34.8111 33.5081 33.9516 33.2678 33.0357H31.25C30.5402 33.0336 29.8602 32.7507 29.3583 32.2488C28.8564 31.7469 28.5735 31.0669 28.5714 30.3571V28.5714C28.5734 28.1809 28.6607 27.7956 28.8273 27.4424C28.9939 27.0892 29.2356 26.7767 29.5357 26.5268C29.794 24.0516 30.9103 21.7448 32.6911 20.0063C34.472 18.2679 36.805 17.2075 39.2857 17.0089ZM7.14284 32.1428H8.92855V33.9286H7.14284V32.1428ZM26.7857 41.0714H7.14284V39.2857H26.7857V41.0714ZM26.7857 37.5H7.14284V35.7143H26.7857V37.5ZM26.7857 33.9286H10.7143V32.1428H26.7857V33.9286ZM26.7857 28.5714H15.9071C15.7253 29.0933 15.3856 29.5457 14.935 29.8659C14.4845 30.186 13.9455 30.358 13.3928 30.358C12.8402 30.358 12.3012 30.186 11.8506 29.8659C11.4001 29.5457 11.0604 29.0933 10.8786 28.5714H7.14284V26.7857H10.8786C11.0604 26.2638 11.4001 25.8114 11.8506 25.4913C12.3012 25.1711 12.8402 24.9991 13.3928 24.9991C13.9455 24.9991 14.4845 25.1711 14.935 25.4913C15.3856 25.8114 15.7253 26.2638 15.9071 26.7857H26.7857V28.5714ZM21.4286 23.2143C19.6627 23.2143 17.9364 22.6906 16.4681 21.7095C14.9998 20.7284 13.8554 19.334 13.1796 17.7025C12.5038 16.071 12.327 14.2758 12.6715 12.5438C13.0161 10.8118 13.8664 9.22093 15.1151 7.97224C16.3638 6.72356 17.9547 5.8732 19.6867 5.52869C21.4187 5.18417 23.2139 5.36099 24.8454 6.03677C26.4769 6.71255 27.8713 7.85695 28.8524 9.32525C29.8335 10.7935 30.3571 12.5198 30.3571 14.2857C30.3545 16.6529 29.413 18.9224 27.7391 20.5963C26.0653 22.2701 23.7958 23.2117 21.4286 23.2143Z" fill="url(#paint7_linear_74_1202)"/>
<path d="M42.0179 25.8928C42.7095 25.8925 43.3915 26.0546 44.009 26.3661L45.509 27.1071C45.3763 25.7856 44.7575 24.5605 43.7726 23.6694C42.7876 22.7784 41.5068 22.285 40.1786 22.285C38.8505 22.285 37.5696 22.7784 36.5847 23.6694C35.5998 24.5605 34.9809 25.7856 34.8483 27.1071L36.3483 26.3661C36.9657 26.0546 37.6477 25.8925 38.3393 25.8928H42.0179Z" fill="url(#paint8_linear_74_1202)"/>
<path d="M49.1072 48.6964C49.1109 47.333 48.7659 45.9913 48.1048 44.7989C47.4438 43.6065 46.4887 42.603 45.3304 41.8839L43.4465 40.7053C43.1718 41.3442 42.7158 41.8885 42.135 42.271C41.5542 42.6535 40.874 42.8573 40.1786 42.8573C39.4832 42.8573 38.803 42.6535 38.2222 42.271C37.6414 41.8885 37.1854 41.3442 36.9107 40.7053L35.0268 41.8839C33.8685 42.603 32.9134 43.6065 32.2524 44.7989C31.5913 45.9913 31.2463 47.333 31.25 48.6964V50H49.1072V48.6964Z" fill="url(#paint9_linear_74_1202)"/>
<path d="M50 30.3572V28.5714C50 28.3346 49.9059 28.1075 49.7385 27.9401C49.571 27.7727 49.3439 27.6786 49.1071 27.6786H47.3214V31.25H49.1071C49.3439 31.25 49.571 31.1559 49.7385 30.9885C49.9059 30.8211 50 30.594 50 30.3572Z" fill="url(#paint10_linear_74_1202)"/>
<path d="M30.3571 30.3572C30.3571 30.594 30.4512 30.8211 30.6186 30.9885C30.7861 31.1559 31.0132 31.25 31.25 31.25H33.0357V27.6786H31.25C31.0132 27.6786 30.7861 27.7727 30.6186 27.9401C30.4512 28.1075 30.3571 28.3346 30.3571 28.5714V30.3572Z" fill="url(#paint11_linear_74_1202)"/>
<path d="M50 33.2411V33.9286C49.9985 34.4018 49.81 34.8551 49.4754 35.1897C49.1408 35.5243 48.6874 35.7129 48.2142 35.7143H45.741C46.1818 35.1767 46.5371 34.5744 46.7946 33.9286H48.2142V33.2411H50Z" fill="url(#paint12_linear_74_1202)"/>
<defs>
<linearGradient id="paint0_linear_74_1202" x1="14.2232" y1="27.884" x2="12.5625" y2="27.384" gradientUnits="userSpaceOnUse">
<stop stop-color="#2271FF" stop-opacity="0.9"/>
<stop offset="0.439181" stop-color="#883DED" stop-opacity="0.945933"/>
<stop offset="1" stop-color="#FC34DD"/>
</linearGradient>
<linearGradient id="paint1_linear_74_1202" x1="28.0714" y1="15.9285" x2="14.7857" y2="11.9285" gradientUnits="userSpaceOnUse">
<stop stop-color="#2271FF" stop-opacity="0.9"/>
<stop offset="0.439181" stop-color="#883DED" stop-opacity="0.945933"/>
<stop offset="1" stop-color="#FC34DD"/>
</linearGradient>
<linearGradient id="paint2_linear_74_1202" x1="24.0483" y1="14.9448" x2="19.6713" y2="13.8915" gradientUnits="userSpaceOnUse">
<stop stop-color="#2271FF" stop-opacity="0.9"/>
<stop offset="0.439181" stop-color="#883DED" stop-opacity="0.945933"/>
<stop offset="1" stop-color="#FC34DD"/>
</linearGradient>
<linearGradient id="paint3_linear_74_1202" x1="41.8393" y1="39.9507" x2="38.6518" y2="38.7732" gradientUnits="userSpaceOnUse">
<stop stop-color="#2271FF" stop-opacity="0.9"/>
<stop offset="0.439181" stop-color="#883DED" stop-opacity="0.945933"/>
<stop offset="1" stop-color="#FC34DD"/>
</linearGradient>
<linearGradient id="paint4_linear_74_1202" x1="45.1607" y1="33.1696" x2="35.548" y2="29.6966" gradientUnits="userSpaceOnUse">
<stop stop-color="#2271FF" stop-opacity="0.9"/>
<stop offset="0.439181" stop-color="#883DED" stop-opacity="0.945933"/>
<stop offset="1" stop-color="#FC34DD"/>
</linearGradient>
<linearGradient id="paint5_linear_74_1202" x1="41.3571" y1="30.75" x2="0.601323" y2="20.2324" gradientUnits="userSpaceOnUse">
<stop stop-color="#2271FF" stop-opacity="0.9"/>
<stop offset="0.439181" stop-color="#883DED" stop-opacity="0.945933"/>
<stop offset="1" stop-color="#FC34DD"/>
</linearGradient>
<linearGradient id="paint6_linear_74_1202" x1="48.3077" y1="23.1429" x2="36.8156" y2="14.6746" gradientUnits="userSpaceOnUse">
<stop stop-color="#2271FF" stop-opacity="0.9"/>
<stop offset="0.439181" stop-color="#883DED" stop-opacity="0.945933"/>
<stop offset="1" stop-color="#FC34DD"/>
</linearGradient>
<linearGradient id="paint7_linear_74_1202" x1="38.0357" y1="29.9286" x2="3.95594" y2="21.3781" gradientUnits="userSpaceOnUse">
<stop stop-color="#2271FF" stop-opacity="0.9"/>
<stop offset="0.439181" stop-color="#883DED" stop-opacity="0.945933"/>
<stop offset="1" stop-color="#FC34DD"/>
</linearGradient>
<linearGradient id="paint8_linear_74_1202" x1="45.1359" y1="25.2506" x2="37.6426" y2="20.263" gradientUnits="userSpaceOnUse">
<stop stop-color="#2271FF" stop-opacity="0.9"/>
<stop offset="0.439181" stop-color="#883DED" stop-opacity="0.945933"/>
<stop offset="1" stop-color="#FC34DD"/>
</linearGradient>
<linearGradient id="paint9_linear_74_1202" x1="48.4822" y1="46.4215" x2="34.9105" y2="38.5712" gradientUnits="userSpaceOnUse">
<stop stop-color="#2271FF" stop-opacity="0.9"/>
<stop offset="0.439181" stop-color="#883DED" stop-opacity="0.945933"/>
<stop offset="1" stop-color="#FC34DD"/>
</linearGradient>
<linearGradient id="paint10_linear_74_1202" x1="49.9062" y1="29.875" x2="47.3212" y2="29.2913" gradientUnits="userSpaceOnUse">
<stop stop-color="#2271FF" stop-opacity="0.9"/>
<stop offset="0.439181" stop-color="#883DED" stop-opacity="0.945933"/>
<stop offset="1" stop-color="#FC34DD"/>
</linearGradient>
<linearGradient id="paint11_linear_74_1202" x1="32.9419" y1="29.875" x2="30.3569" y2="29.2913" gradientUnits="userSpaceOnUse">
<stop stop-color="#2271FF" stop-opacity="0.9"/>
<stop offset="0.439181" stop-color="#883DED" stop-opacity="0.945933"/>
<stop offset="1" stop-color="#FC34DD"/>
</linearGradient>
<linearGradient id="paint12_linear_74_1202" x1="49.8509" y1="34.7621" x2="46.4462" y2="32.9969" gradientUnits="userSpaceOnUse">
<stop stop-color="#2271FF" stop-opacity="0.9"/>
<stop offset="0.439181" stop-color="#883DED" stop-opacity="0.945933"/>
<stop offset="1" stop-color="#FC34DD"/>
</linearGradient>
</defs>
</svg>
