<svg width="50" height="47" viewBox="0 0 50 47" fill="none" xmlns="http://www.w3.org/2000/svg">
<path d="M40.5353 11.4988C39.8069 11.4988 39.2147 10.9134 39.2147 10.1888C39.2147 9.46633 39.8048 8.8789 40.5353 8.8789H44.9344C45.6628 8.8789 46.255 9.46428 46.255 10.1888V36.9504H48.6794C49.4078 36.9504 50 37.5357 50 38.2603V41.1503C50 42.7591 49.3356 44.2226 48.2688 45.2828C47.2 46.343 45.7247 47 44.1029 47H5.89714C4.27532 47 2.79998 46.3409 1.73116 45.2828C0.662346 44.2226 0 42.7591 0 41.1503V38.2603C0 37.5378 0.590137 36.9504 1.32057 36.9504H3.74503V10.1888C3.74503 9.46633 4.33517 8.8789 5.06561 8.8789H9.46475C10.1931 8.8789 10.7853 9.46428 10.7853 10.1888C10.7853 10.9113 10.1952 11.4988 9.46475 11.4988H6.38618V36.9504H43.6157V11.4988H40.5353ZM12.9786 8.38359C12.5247 8.94848 11.6973 9.04264 11.1257 8.59236C10.5562 8.14206 10.4613 7.3213 10.9152 6.75436C12.5907 4.66254 14.7325 2.94941 17.188 1.77046C19.5547 0.636526 22.2061 0 24.9999 0C27.7937 0 30.447 0.636526 32.8119 1.77046C35.2673 2.94532 37.4091 4.6605 39.0846 6.75436C39.5386 7.31926 39.4436 8.14205 38.8741 8.59236C38.3046 9.04266 37.4752 8.9485 37.0212 8.38359C35.5893 6.59264 33.759 5.12923 31.6666 4.12833C29.6548 3.16432 27.3933 2.62394 24.9998 2.62394C22.6063 2.62394 20.3448 3.16427 18.333 4.12833C16.2408 5.13127 14.4126 6.59468 12.9805 8.38359H12.9786ZM16.3915 11.069C15.9375 11.6339 15.1101 11.728 14.5385 11.2777C13.9691 10.8274 13.8741 10.0067 14.3281 9.43973C15.597 7.8535 17.221 6.55582 19.0801 5.66344C20.8731 4.80381 22.8829 4.32075 24.9999 4.32075C27.1149 4.32075 29.1247 4.8038 30.9198 5.66344C32.7789 6.55378 34.4028 7.8535 35.6718 9.43973C36.1257 10.0046 36.0308 10.8274 35.4613 11.2777C34.8918 11.728 34.0624 11.6339 33.6084 11.069C32.5808 9.78564 31.2726 8.73769 29.7746 8.02131C28.3364 7.33359 26.7166 6.9447 25.002 6.9447C23.2873 6.9447 21.6675 7.33154 20.2293 8.02131C18.7313 8.73973 17.421 9.78768 16.3955 11.069H16.3915ZM19.8043 13.7523C19.3503 14.3172 18.5229 14.4113 17.9514 13.9611C17.3819 13.5108 17.287 12.69 17.7409 12.1231C18.6034 11.0444 19.7073 10.1622 20.9722 9.55642C22.1937 8.97104 23.5617 8.64355 24.9999 8.64355C26.4381 8.64355 27.8041 8.97308 29.0277 9.55642C30.2925 10.1622 31.3965 11.0444 32.2589 12.1231C32.7129 12.688 32.618 13.5108 32.0485 13.9611C31.479 14.4114 30.6495 14.3172 30.1956 13.7523C29.5765 12.9765 28.7842 12.3462 27.8825 11.9122C27.0179 11.4967 26.0399 11.2655 25.002 11.2655C23.9662 11.2655 22.9881 11.4988 22.1215 11.9122C21.2178 12.3441 20.4275 12.9786 19.8085 13.7523H19.8043ZM29.1988 25.3966L22.0429 29.4983C21.4136 29.8606 20.6068 29.6457 20.2437 29.0214C20.124 28.8147 20.0662 28.5896 20.0662 28.3665L20.0621 20.0871C20.0621 19.3646 20.6522 18.7772 21.3827 18.7772C21.6592 18.7772 21.913 18.8611 22.1255 19.0044L29.2708 23.0979C29.9001 23.4602 30.1148 24.2605 29.7516 24.8827C29.6175 25.114 29.4214 25.2859 29.1986 25.3985L29.1988 25.3966Z" fill="url(#paint0_linear_74_1188)"/>
<defs>
<linearGradient id="paint0_linear_74_1188" x1="48.25" y1="28.905" x2="2.2536" y2="14.1727" gradientUnits="userSpaceOnUse">
<stop stop-color="#2271FF" stop-opacity="0.9"/>
<stop offset="0.439181" stop-color="#883DED" stop-opacity="0.945933"/>
<stop offset="1" stop-color="#FC34DD"/>
</linearGradient>
</defs>
</svg>
