<svg width="50" height="56" viewBox="0 0 50 56" fill="none" xmlns="http://www.w3.org/2000/svg">
<path fill-rule="evenodd" clip-rule="evenodd" d="M2.65308 28.1261H2.63109V19.9914C2.63109 18.5367 3.81607 17.3555 5.27597 17.3555H5.75436V28.1264L2.65308 28.1261ZM9.93921 4.98478C9.93921 3.62307 11.0499 2.51294 12.4246 2.51294H32.2503C33.1576 2.51294 33.9907 2.87387 34.656 3.55748L38.4061 7.28989V0.823062C38.4061 0.369153 38.035 0 37.5786 0H8.24261C7.78621 0 7.41503 0.369139 7.41503 0.823062V28.1259H9.94167V4.98457L9.93921 4.98478ZM47.377 23.245V19.9911C47.377 18.5365 46.1866 17.3552 44.7267 17.3552H44.2483V23.2478H47.3495H47.377L47.377 23.245ZM50 27.5271V53.3613C50 54.8133 48.8095 55.9973 47.3496 55.9973L2.65308 56C1.19318 56 0.00270842 54.816 0.00270842 53.3641V49.9652L5.27051 45.1226L8.59453 52.6994C8.73199 53.0139 9.05092 53.2135 9.39732 53.1916C9.74375 53.1725 10.0407 52.94 10.1452 52.6092L15.0198 36.7254L18.3163 52.7821C18.3905 53.1512 18.7094 53.4247 19.0916 53.4411C19.1026 53.4411 19.1136 53.4438 19.1274 53.4438C19.493 53.4438 19.8175 53.2032 19.9247 52.8532L22.4733 44.232L25.7341 45.0113C25.9568 45.0632 26.185 45.0249 26.3719 44.9046C26.5589 44.7843 26.6964 44.5929 26.7376 44.3742L28.5109 35.6514L30.6389 40.5214C30.7461 40.7702 30.9743 40.9507 31.2438 41.0026C31.5132 41.0518 31.7909 40.9671 31.9861 40.7757L41.2458 31.5636L41.1193 32.3101C41.0451 32.7585 41.3475 33.1824 41.7984 33.259C42.2493 33.3355 42.6755 33.032 42.7497 32.5836L43.3078 29.2969C43.3546 29.0344 43.2666 28.7664 43.0742 28.5777C42.8872 28.3891 42.6178 28.3043 42.3566 28.3481L39.0491 28.9004C38.5982 28.977 38.2958 29.4008 38.37 29.8493C38.4443 30.2977 38.8732 30.6012 39.3213 30.5246L40.0747 30.3989L31.6701 38.7555L28.9785 32.5894C28.8355 32.2586 28.4946 32.0617 28.1345 32.0973C27.7743 32.1355 27.4774 32.4008 27.4114 32.7535L25.2889 43.2101L22.0969 42.4473C21.668 42.3461 21.2308 42.5949 21.1043 43.016L19.2732 49.2149L15.9904 33.2268C15.9162 32.8577 15.5973 32.587 15.2206 32.5679C14.8384 32.5487 14.4975 32.7893 14.3875 33.1503L9.21594 49.9993L6.32633 43.4067C6.21911 43.1633 6.00191 42.9856 5.73797 42.9309C5.47678 42.8762 5.20184 42.9501 5.00112 43.1305L0 47.7216V32.4146C0 30.9627 1.19047 29.7787 2.65037 29.7787H30.8919C31.1888 29.7787 31.461 29.6228 31.6094 29.3658L33.435 26.2158C33.9299 25.3654 34.7465 24.8978 35.7335 24.8978H47.3496C48.8095 24.8978 50 26.0791 50 27.5338L50 27.5271ZM46.313 47.8817C46.313 47.477 45.9804 47.1462 45.5735 47.1462H37.2316C36.8247 47.1462 36.492 47.477 36.492 47.8817V51.5978C36.492 52.0024 36.8247 52.3333 37.2316 52.3333H45.5735C45.9804 52.3333 46.313 52.0025 46.313 51.5978V47.8817ZM35.7696 10.9426H39.7396L35.7696 6.99421V10.9426ZM34.942 12.5888H40.559C41.0648 12.5888 41.5377 12.772 41.9172 13.1056L42.0299 13.2177C42.0354 13.2231 42.0354 13.2259 42.0409 13.2286C42.412 13.5841 42.5935 13.9806 42.5935 14.44V23.2418H35.7338C34.1557 23.2418 32.792 24.0211 32.0057 25.3828L30.4138 28.12H11.5918L11.5945 4.9842C11.5945 4.53029 11.9712 4.16114 12.4276 4.16114H32.2533C32.7152 4.16114 33.1139 4.3416 33.474 4.70801C33.474 4.71075 33.4795 4.71622 33.4795 4.71895L33.5758 4.81466C33.9249 5.18927 34.1201 5.67328 34.1201 6.18183V11.7709C34.1201 12.2248 34.4858 12.594 34.9477 12.594L34.942 12.5888ZM15.6829 9.38681C15.6829 9.84072 16.054 10.2099 16.5104 10.2099H28.5799C29.0363 10.2099 29.4074 9.84074 29.4074 9.38681C29.4074 8.9329 29.0363 8.56375 28.5799 8.56375H16.5104C16.0541 8.56375 15.6829 8.93289 15.6829 9.38681ZM15.6829 13.8876C15.6829 14.3415 16.054 14.7107 16.5104 14.7107H28.5799C29.0363 14.7107 29.4074 14.3415 29.4074 13.8876C29.4074 13.4337 29.0363 13.0646 28.5799 13.0646H16.5104C16.0541 13.0646 15.6829 13.4337 15.6829 13.8876ZM29.4077 22.8861C29.4077 22.4322 29.0366 22.0631 28.5801 22.0631H16.5107C16.0543 22.0631 15.6832 22.4322 15.6832 22.8861C15.6832 23.34 16.0543 23.7092 16.5107 23.7092H28.5801C29.0365 23.7092 29.4077 23.3401 29.4077 22.8861ZM37.8073 17.5623H16.5106C16.0542 17.5623 15.683 17.9314 15.683 18.3853C15.683 18.8393 16.0542 19.2084 16.5106 19.2084H37.8073C38.2637 19.2084 38.6349 18.8393 38.6349 18.3853C38.6349 17.9314 38.2637 17.5623 37.8073 17.5623Z" fill="url(#paint0_linear_25_827)"/>
<defs>
<linearGradient id="paint0_linear_25_827" x1="48.25" y1="34.44" x2="0.95277" y2="21.7257" gradientUnits="userSpaceOnUse">
<stop stop-color="#2271FF" stop-opacity="0.9"/>
<stop offset="0.439181" stop-color="#883DED" stop-opacity="0.945933"/>
<stop offset="1" stop-color="#FC34DD"/>
</linearGradient>
</defs>
</svg>
