<svg width="24" height="24" viewBox="0 0 24 24" fill="none" xmlns="http://www.w3.org/2000/svg">
<path fill-rule="evenodd" clip-rule="evenodd" d="M2.04132 9.3823L2.40211 12.2742C2.44671 12.6255 2.61292 12.9506 2.87338 13.1906L3.46932 13.7424C3.52506 13.7941 3.60716 13.8103 3.67911 13.7829C3.75107 13.7556 3.80073 13.6908 3.80884 13.6138C3.8281 13.4174 3.89194 13.225 3.99937 13.0518C4.02471 13.0103 4.03485 12.9597 4.02674 12.9121L3.47237 9.5837C3.40953 9.20905 3.08116 8.93767 2.7021 8.94477L2.64332 8.9468C2.4538 8.95591 2.27542 9.03489 2.14164 9.16754C2.13353 9.17564 2.08894 9.22424 2.08894 9.22424C2.06462 9.26272 2.03726 9.29622 2.04132 9.3823ZM21.9585 9.3823C21.9625 9.29623 21.9352 9.26281 21.9108 9.22433C21.9108 9.22433 21.8663 9.17573 21.8581 9.16763C21.7244 9.03498 21.546 8.956 21.3565 8.94689L21.2977 8.94486C20.9187 8.93777 20.5903 9.20914 20.5274 9.58379L19.973 12.9122C19.9649 12.9598 19.9751 13.0104 20.0004 13.0519C20.1078 13.2251 20.1717 13.4175 20.191 13.6139C20.1991 13.6909 20.2487 13.7557 20.3207 13.783C20.3926 13.8103 20.4747 13.7941 20.5305 13.7425L21.1264 13.1906C21.3869 12.9507 21.5531 12.6256 21.5977 12.2743L21.9585 9.3823ZM12.1722 14.7743C16.8382 12.6368 18.5916 8.05898 18.4782 2.51917C18.4731 2.31666 18.3231 2.14755 18.1224 2.11818C15.8431 1.782 13.9224 1.03472 12.2067 0.0555667C12.079 -0.0183526 11.9208 -0.0183526 11.7931 0.0545542C10.0773 1.03472 8.15665 1.78203 5.87736 2.11919C5.67668 2.14755 5.52668 2.31766 5.52162 2.51917C5.40811 8.05897 7.16144 12.6368 11.8276 14.7743C11.9371 14.825 12.0627 14.825 12.1722 14.7743ZM11.9999 2.66382C14.2093 2.66382 16.0082 4.47331 16.0082 6.70818C16.0082 8.94193 14.2092 10.7525 11.9999 10.7525C9.79054 10.7525 7.9916 8.94204 7.9916 6.70818C7.9916 4.47341 9.79054 2.66382 11.9999 2.66382ZM11.9999 3.39288C10.1898 3.39288 8.72118 4.87733 8.72118 6.70805C8.72118 8.53778 10.1897 10.0232 11.9999 10.0232C13.81 10.0232 15.2786 8.53776 15.2786 6.70805C15.2786 4.8773 13.81 3.39288 11.9999 3.39288ZM10.506 6.83273C10.3732 6.68186 10.3884 6.45098 10.5384 6.31834C10.6905 6.18569 10.9205 6.19986 11.0543 6.35074L11.6006 6.97043L12.9668 5.65509C13.1117 5.51536 13.3428 5.52042 13.4826 5.66522C13.6215 5.81002 13.6174 6.04088 13.4725 6.18063L11.8327 7.76027C11.7607 7.82912 11.6634 7.86557 11.5641 7.86152C11.4648 7.85747 11.3715 7.81393 11.3057 7.739L10.506 6.83273ZM13.435 19.2064V19.3451C13.4299 20.6898 13.4329 22.9254 13.435 23.7985C13.435 23.9099 13.5262 24 13.6377 24H18.2258C18.2795 24 18.3312 23.9787 18.3697 23.9403C18.4072 23.9018 18.4285 23.8501 18.4285 23.7955L18.4093 21.7369V21.7146C18.4093 21.7146 18.4306 20.7699 19.4734 19.7219C21.1721 18.0126 22.4774 16.761 23.2153 15.629C23.8548 14.6468 23.9734 13.9907 23.9957 12.894C24.0028 12.5224 23.9997 9.78748 23.9967 8.30707V8.25847C23.9896 8.06608 23.9095 7.88281 23.7727 7.74509C23.6338 7.60737 23.4474 7.52637 23.2518 7.52131H23.1808C22.8008 7.52839 22.4815 7.81293 22.4349 8.19162L21.919 12.3148C21.8653 12.7421 21.6626 13.136 21.3474 13.4286L17.7364 16.7692L17.7201 16.7844C17.6553 16.8411 17.557 16.8381 17.4962 16.7753C17.4353 16.7125 17.4353 16.6123 17.4962 16.5495L17.5124 16.5343L19.585 14.4453C19.9599 14.0676 19.9701 13.4601 19.6083 13.0692L19.5677 13.0267C19.2201 12.6824 18.6667 12.647 18.2775 12.9518L15.8654 14.8392L15.8371 14.8615C15.6364 15.0093 13.4268 16.6941 13.435 19.2064ZM10.5649 19.2064C10.573 16.6942 8.3636 15.0093 8.16294 14.8613L8.13456 14.839L5.72245 12.9516C5.33327 12.6468 4.77991 12.6822 4.43227 13.0265L4.39173 13.0691C4.02992 13.4599 4.04004 14.0675 4.41504 14.4452L6.48763 16.5341L6.50384 16.5493C6.56466 16.6121 6.56466 16.7123 6.50384 16.7751C6.44303 16.8379 6.34473 16.8409 6.27986 16.7842L6.26365 16.769L2.65258 13.4285C2.3374 13.1358 2.13469 12.7419 2.08098 12.3146L1.56511 8.19144C1.51849 7.81275 1.19923 7.5282 0.819185 7.52113H0.748241C0.552637 7.52619 0.366144 7.60719 0.227311 7.74491C0.0904913 7.88262 0.0104242 8.0659 0.00333074 8.25829V8.3069C0.000290216 9.78728 -0.00275031 12.5223 0.00434417 12.8938C0.0266408 13.9904 0.145219 14.6466 0.784727 15.6288C1.52256 16.7609 2.82792 18.0124 4.52656 19.7217C5.56943 20.7697 5.59073 21.7144 5.59073 21.7144V21.7367L5.57147 23.7953C5.57147 23.85 5.59276 23.9016 5.63025 23.9401C5.66877 23.9786 5.72045 23.9998 5.77417 23.9998H10.3623C10.4738 23.9998 10.565 23.9097 10.565 23.7983C10.5671 22.9255 10.5701 20.6897 10.565 19.3449L10.5649 19.2064Z" fill="url(#paint0_linear_25_890)"/>
<defs>
<linearGradient id="paint0_linear_25_890" x1="23.16" y1="14.76" x2="0.839999" y2="8.04" gradientUnits="userSpaceOnUse">
<stop stop-color="#2271FF" stop-opacity="0.9"/>
<stop offset="0.439181" stop-color="#883DED" stop-opacity="0.945933"/>
<stop offset="1" stop-color="#FC34DD"/>
</linearGradient>
</defs>
</svg>
