<svg width="50" height="49" viewBox="0 0 50 49" fill="none" xmlns="http://www.w3.org/2000/svg">
<path fill-rule="evenodd" clip-rule="evenodd" d="M39.6466 5.66426H10.3561C10.1952 5.66426 10.06 5.79619 10.06 5.95791V8.43061C10.06 8.5902 10.193 8.72426 10.3561 8.72426H39.6466C39.8075 8.72426 39.9427 8.59233 39.9427 8.43061L39.9406 5.95791C39.9406 5.79832 39.8075 5.66426 39.6466 5.66426ZM10.3561 4.17468H39.6466C40.638 4.17468 41.4448 4.97482 41.4448 5.95788V8.43057C41.4448 9.41369 40.6379 10.2138 39.6466 10.2138H10.3561C9.36471 10.2138 8.55791 9.41364 8.55791 8.43057L8.56005 5.95788C8.56005 4.97689 9.36691 4.17468 10.3561 4.17468ZM23.0765 29.7591H21.2869C20.8448 29.7591 20.48 30.1208 20.48 30.5592V32.3339C20.48 32.951 20.2418 33.5171 19.804 33.9512L18.538 35.2067C18.2247 35.5174 18.2247 36.0281 18.538 36.3387L19.804 37.5942C20.2418 38.0283 20.48 38.5987 20.48 39.2115V40.9862C20.48 41.4246 20.8426 41.7863 21.2869 41.7863H23.0765C23.6988 41.7863 24.2696 42.0225 24.7073 42.4567L25.9734 43.7122C26.2867 44.0228 26.8017 44.0228 27.115 43.7122L28.381 42.4567C28.8188 42.0226 29.3939 41.7863 30.0119 41.7863H31.8015C32.2435 41.7863 32.6083 41.4267 32.6083 40.9862V39.2115C32.6083 38.5944 32.8465 38.0283 33.2843 37.5942L34.5504 36.3387C34.8636 36.0281 34.8636 35.5174 34.5504 35.2067L33.2843 33.9512C32.8466 33.5171 32.6083 32.9468 32.6083 32.3339V30.5592C32.6083 30.1209 32.2457 29.7591 31.8015 29.7591H30.0119C29.3896 29.7591 28.8188 29.5229 28.381 29.0888L27.115 27.8333C26.8017 27.5226 26.2867 27.5226 25.9734 27.8333L24.7073 29.0888C24.2717 29.5229 23.6967 29.7591 23.0765 29.7591ZM30.3551 43.2695V48.9851L26.9862 46.9019C26.7287 46.7423 26.409 46.7572 26.1708 46.9146L22.7289 49V43.2692C23.1001 43.2692 23.3619 43.2224 23.643 43.5033L24.909 44.7588C25.8103 45.6525 27.2738 45.6525 28.175 44.7588L29.4411 43.5033C29.7222 43.2266 29.9839 43.2695 30.3551 43.2695ZM21.2889 28.2697C20.0165 28.2697 18.98 29.2975 18.98 30.5594V32.3341C18.98 32.5682 18.9114 32.7341 18.744 32.9001L17.4779 34.1556C17.2119 34.4195 17.0252 34.7302 16.9158 35.0622L2.14801 35.0579C0.967817 35.0579 0 34.0982 0 32.9278L0.00214636 2.1301C0.00214636 0.959749 0.969908 0 2.15015 0H47.852C49.0322 0 50 0.959694 50 2.1301V32.93C50 34.1003 49.0322 35.0601 47.852 35.0601L36.1677 35.058C36.0604 34.726 35.8715 34.4153 35.6055 34.1514L34.3394 32.8959C34.172 32.7299 34.1034 32.5661 34.1034 32.3299V30.5552C34.1034 29.2933 33.0669 28.2655 31.7945 28.2655H30.0049C29.7688 28.2655 29.6014 28.1974 29.434 28.0314L28.168 26.7759C27.2668 25.8822 25.8033 25.8822 24.902 26.7759L23.636 28.0314C23.4686 28.1974 23.3034 28.2655 23.0652 28.2655L21.2889 28.2697ZM28.6236 33.7066C29.7738 34.8473 29.7738 36.6943 28.6236 37.8349C26.7739 39.6692 23.5981 38.3626 23.5981 35.7707C23.6003 33.1789 26.7761 31.8724 28.6236 33.7066ZM26.5422 31.3616C28.997 31.3616 30.9884 33.3364 30.9884 35.7708C30.9884 38.2052 28.997 40.1799 26.5422 40.1799C24.0873 40.1799 22.096 38.2052 22.096 35.7708C22.0981 33.3364 24.0873 31.3616 26.5422 31.3616ZM17.2551 13.7252H32.7524C33.1687 13.7252 33.5034 13.3932 33.5034 12.9804C33.5034 12.5676 33.1687 12.2356 32.7524 12.2356H17.2551C16.8388 12.2356 16.5041 12.5676 16.5041 12.9804C16.5041 13.3932 16.8388 13.7252 17.2551 13.7252ZM7.65881 17.3959H42.3399C42.7562 17.3959 43.091 17.064 43.091 16.6511C43.091 16.2383 42.7562 15.9064 42.3399 15.9064H7.65881C7.24252 15.9064 6.90776 16.2383 6.90776 16.6511C6.90776 17.0618 7.2468 17.3959 7.65881 17.3959ZM7.65881 21.0667H42.3399C42.7562 21.0667 43.091 20.7347 43.091 20.3219C43.091 19.909 42.7562 19.5771 42.3399 19.5771H7.65881C7.24252 19.5771 6.90776 19.909 6.90776 20.3219C6.90776 20.7347 7.2468 21.0667 7.65881 21.0667ZM7.65881 30.8831H12.6307C13.047 30.8831 13.3818 30.5512 13.3818 30.1383C13.3818 29.7255 13.047 29.3936 12.6307 29.3936H7.65881C7.24252 29.3936 6.90776 29.7255 6.90776 30.1383C6.90776 30.549 7.2468 30.8831 7.65881 30.8831ZM37.3701 30.8831H42.342C42.7583 30.8831 43.093 30.5512 43.093 30.1383C43.093 29.7255 42.7583 29.3936 42.342 29.3936H37.3701C36.9538 29.3936 36.619 29.7255 36.619 30.1383C36.619 30.549 36.9559 30.8831 37.3701 30.8831Z" fill="url(#paint0_linear_25_820)"/>
<defs>
<linearGradient id="paint0_linear_25_820" x1="48.25" y1="30.135" x2="1.90881" y2="15.8981" gradientUnits="userSpaceOnUse">
<stop stop-color="#2271FF" stop-opacity="0.9"/>
<stop offset="0.439181" stop-color="#883DED" stop-opacity="0.945933"/>
<stop offset="1" stop-color="#FC34DD"/>
</linearGradient>
</defs>
</svg>
